<?xml version="1.0" encoding="utf-8"?>
<!-- Generator: Adobe Illustrator 25.2.3, SVG Export Plug-In . SVG Version: 6.00 Build 0)  -->
<svg version="1.1" id="Layer_1" xmlns="http://www.w3.org/2000/svg" xmlns:xlink="http://www.w3.org/1999/xlink" x="0px" y="0px"
	 viewBox="0 0 1000 1000" style="enable-background:new 0 0 1000 1000;" xml:space="preserve">
<style type="text/css">
	.st0{opacity:0.5;fill:#83296B;enable-background:new    ;}
	.st1{fill:#56587E;}
	.st2{fill:#FCD47F;}
	.st3{opacity:0.5;fill:#FCD069;enable-background:new    ;}
	.st4{opacity:0.5;fill:#434470;enable-background:new    ;}
	.st5{fill:#83296B;enable-background:new    ;}
</style>
<circle class="st0" cx="739.73" cy="767.99" r="108.99"/>
<path class="st1" d="M670.98,724.48c-66.11,47.55-131.14,67.16-170.24,75.98c-0.11-0.47-0.29-1.27-0.54-2.38
	c-0.24,1.12-0.42,1.91-0.54,2.39c-39.12-8.82-104.14-28.44-170.24-75.98c-35.39-25.45-172.24-124.37-166.4-263.54
	c2.12-50.43,24.38-131.32,86.56-156.78c65.47-26.81,140.42,22.07,159.66,34.63c0,0,35.12,22.91,61.56,57.71
	c12.38,16.28,22.01,35.25,29.39,55.91c7.38-20.67,17.01-39.64,29.39-55.93c26.44-34.79,61.56-57.71,61.56-57.71
	c19.25-12.55,94.19-61.43,159.66-34.63c62.17,25.46,84.44,106.35,86.56,156.78C843.22,600.11,706.36,699.03,670.98,724.48z"/>
<g>
	<path class="st2" d="M516.35,735.94c-0.13,0-0.26,0-0.39,0c-19.5-0.28-27.12-20.86-29.63-27.63c-3.99-10.78-7.62-25.35-12.21-43.8
		c-2.74-11-5.84-23.46-9.5-36.97c-9.64-35.64-19.6-72.5-30.1-102.42c-7.02-20.01-12.7-32.2-16.9-39.6
		c-2.65-4.68-9.38-4.7-12.14-0.09c-9.44,15.76-26.04,53.57-48.78,143.8l-2.28,9.03c-0.79,3.13-3.6,5.32-6.82,5.32H131.54
		c-3.89,0-7.04-3.15-7.04-7.04v-23.89c0-3.89,3.15-7.04,7.04-7.04l186.59,0c3.19,0,5.99-2.15,6.8-5.24
		c14.72-55.86,28.29-95.92,41.34-122.1c8.96-17.98,23.51-41.85,46.27-41.32c26.44,0.6,41.89,32.46,54.64,66.81
		c12.15,32.71,23.3,73.96,34.09,113.86c3.75,13.87,6.9,26.53,9.69,37.7c0.55,2.21,1.11,4.45,1.67,6.7
		c1.65,6.59,10.76,7.25,13.33,0.97c6.85-16.69,13.96-35.11,18.64-47.25c2.85-7.4,5.48-14.24,7.9-20.56
		c10.49-27.37,17.42-45.44,23.58-57.3c3.86-7.42,12.89-24.81,32.37-25.62c0.5-0.02,1-0.03,1.49-0.03c26.13,0,41.9,28.99,58.57,59.66
		c5.66,10.4,11.5,21.16,17.09,29.29c0.81,1.18,1.58,2.24,2.29,3.2c3.13,4.18,9.58,3.55,11.9-1.12c3.18-6.39,7.19-16.77,11.36-33.47
		l2.28-9.11c0.79-3.15,3.63-5.35,6.87-5.33l148.29,1.02c3.89,0.03,7.01,3.2,6.99,7.08l-0.16,23.89c-0.03,3.89-3.2,7.01-7.08,6.99
		l-119.12-0.82c-3.07-0.02-5.8,1.97-6.75,4.89c-3.14,9.67-6.49,17.8-10.13,24.58c-9.54,17.8-21.73,27.08-36.24,27.6
		c-0.44,0.02-0.88,0.02-1.32,0.02c-26.71,0-42.71-29.44-59.65-60.59c-5.51-10.14-11.21-20.62-16.61-28.56l0,0
		c-3.1-4.54-9.98-3.92-12.21,1.11c-4.99,11.24-11.4,27.96-18.39,46.2c-2.43,6.35-5.07,13.22-7.93,20.64
		c-16.53,42.82-26.02,65.83-32.77,79.43C542.21,719.01,533.8,735.94,516.35,735.94z"/>
</g>
<ellipse class="st3" cx="659.87" cy="189.25" rx="65.15" ry="65.25"/>
<circle class="st4" cx="206.15" cy="767.92" r="43.49"/>
<circle class="st5" cx="429.79" cy="283.62" r="29.33"/>
</svg>
