<?xml version="1.0" encoding="utf-8"?>
<!-- Generator: Adobe Illustrator 21.1.0, SVG Export Plug-In . SVG Version: 6.00 Build 0)  -->
<svg version="1.1" id="Layer_1" xmlns="http://www.w3.org/2000/svg" xmlns:xlink="http://www.w3.org/1999/xlink" x="0px" y="0px"
	 viewBox="0 0 50 50" style="enable-background:new 0 0 50 50;" xml:space="preserve">
<style type="text/css">
	.st0{fill:#83296B;}
	.st1{fill:#FFFFFF;}
</style>
<path class="st0" d="M41.5,50H8.5C3.8,50,0,46.2,0,41.5V8.5C0,3.8,3.8,0,8.5,0h32.9C46.2,0,50,3.8,50,8.5v32.9
	C50,46.2,46.2,50,41.5,50z"/>
<g>
	<path class="st1" d="M5.4,25.4v-0.7c0-2.6,2.6-4.7,5.8-4.7h27.6c3.3,0,5.8,2.1,5.8,4.7v0.7c0,2.6-2.6,4.7-5.8,4.7H11.2
		C8,30.1,5.4,28,5.4,25.4z"/>
	<path class="st1" d="M24.6,5.4h0.7c2.6,0,4.7,2.6,4.7,5.8v27.6c0,3.3-2.1,5.8-4.7,5.8h-0.7c-2.6,0-4.7-2.6-4.7-5.8V11.2
		C19.9,8,22,5.4,24.6,5.4z"/>
</g>
</svg>
