<?xml version="1.0" encoding="utf-8"?>
<!-- Generator: Adobe Illustrator 25.2.3, SVG Export Plug-In . SVG Version: 6.00 Build 0)  -->
<svg version="1.1" id="Layer_1" xmlns="http://www.w3.org/2000/svg" xmlns:xlink="http://www.w3.org/1999/xlink" x="0px" y="0px"
	 viewBox="0 0 1000 1000" style="enable-background:new 0 0 1000 1000;" xml:space="preserve">
<style type="text/css">
	.st0{opacity:0.5;fill:#FCD069;enable-background:new    ;}
	.st1{opacity:0.5;fill:#83296B;enable-background:new    ;}
	.st2{opacity:0.5;fill:#434470;enable-background:new    ;}
	.st3{fill:#CACBDA;}
	.st4{opacity:0.9;fill:#FCD47F;}
	.st5{fill:#8F4279;}
	.st6{fill:#56587E;}
</style>
<circle class="st0" cx="521.9" cy="265.79" r="39.1"/>
<circle class="st1" cx="193.09" cy="758.97" r="54.58"/>
<circle class="st2" cx="800.2" cy="174.27" r="36.38"/>
<circle class="st0" cx="483.06" cy="798.36" r="39.1"/>
<g>
	<g>
		<path class="st3" d="M895.67,704.37l-30.56,57.31c-36.21,67.91-120.61,93.6-188.52,57.4L161.98,544.68
			c-67.91-36.21-93.6-120.61-57.4-188.52l30.56-57.31c36.21-67.91,120.61-93.6,188.52-57.4l514.61,274.39
			C906.18,552.06,931.88,636.46,895.67,704.37z"/>
		<path class="st4" d="M694.82,487.77L573.56,715.19c-5.73,10.75-19.1,14.82-29.85,9.09L325.54,607.95
			c-10.75-5.73-14.82-19.1-9.09-29.85l121.26-227.42c5.73-10.75,19.1-14.82,29.85-9.09l218.17,116.33
			C696.48,463.66,700.55,477.02,694.82,487.77z"/>
		<circle class="st5" cx="210.87" cy="452.28" r="17.79"/>
		<circle class="st5" cx="274.71" cy="332.56" r="17.79"/>
		<circle class="st6" cx="269.75" cy="483.68" r="17.79"/>
		<circle class="st6" cx="269.75" cy="408.06" r="17.79"/>
		<circle class="st6" cx="333.59" cy="363.96" r="17.79"/>
		<circle class="st5" cx="322.74" cy="436.31" r="17.79"/>
		<circle class="st6" cx="210.87" cy="376.66" r="17.79"/>
		<circle class="st6" cx="687.8" cy="706.58" r="17.79"/>
		<circle class="st6" cx="751.63" cy="586.86" r="17.79"/>
		<circle class="st5" cx="746.67" cy="737.98" r="17.79"/>
		<circle class="st5" cx="746.67" cy="662.36" r="17.79"/>
		<circle class="st5" cx="810.51" cy="618.26" r="17.79"/>
		<circle class="st6" cx="799.66" cy="690.61" r="17.79"/>
		<circle class="st5" cx="687.79" cy="630.96" r="17.79"/>
	</g>
	<path class="st5" d="M486.48,620.07l-43.38-23.13c-4.01-2.14-5.53-7.13-3.39-11.14l72.7-136.34c2.14-4.01,7.13-5.53,11.14-3.39
		l43.38,23.13c4.01,2.14,5.53,7.13,3.39,11.14l-72.7,136.34C495.48,620.69,490.49,622.21,486.48,620.07z"/>
	<path class="st5" d="M418.45,515.55l22.97-43.08c2.18-4.1,7.28-5.65,11.37-3.46l136.04,72.54c4.1,2.18,5.65,7.28,3.46,11.37
		L569.32,596c-2.18,4.1-7.28,5.65-11.37,3.46l-136.04-72.54C417.81,524.74,416.26,519.64,418.45,515.55z"/>
</g>
<circle class="st1" cx="729.04" cy="320.25" r="54.58"/>
</svg>
