<?xml version="1.0" encoding="utf-8"?>
<!-- Generator: Adobe Illustrator 21.1.0, SVG Export Plug-In . SVG Version: 6.00 Build 0)  -->
<svg version="1.1" id="Layer_1" xmlns="http://www.w3.org/2000/svg" xmlns:xlink="http://www.w3.org/1999/xlink" x="0px" y="0px"
	 viewBox="0 0 1917 471" style="enable-background:new 0 0 1917 471;" xml:space="preserve">
<style type="text/css">
	.st0{fill:#434470;}
	.st1{fill:#FCD06A;}
</style>
<g>
	<g>
		<path class="st0" d="M82.2,54.1c20.5-4.3,52.9-7.6,85.8-7.6c47,0,77.2,8.1,99.9,26.4c18.9,14,30.2,35.6,30.2,64.2
			c0,35.1-23.2,65.9-61.5,79.9v1.1c34.5,8.6,75,37.2,75,91.2c0,31.3-12.4,55.1-30.8,72.9c-25.4,23.2-66.4,34-125.8,34
			c-32.4,0-57.2-2.2-72.9-4.3V54.1z M129.2,203.1h42.6c49.7,0,78.8-25.9,78.8-61c0-42.6-32.4-59.4-79.9-59.4
			c-21.6,0-34,1.6-41.6,3.2V203.1z M129.2,377.4c9.2,1.6,22.7,2.2,39.4,2.2c48.6,0,93.4-17.8,93.4-70.7c0-49.7-42.6-70.2-93.9-70.2
			h-38.9V377.4z"/>
		<path class="st0" d="M563.1,242.5H421.7v131.2h157.6v39.4H374.8V49.3h196.5v39.4H421.7v115h141.4V242.5z"/>
		<path class="st0" d="M640.3,49.3h195.9v39.4h-149v120.9h137.6v38.9H687.3v164.6h-47V49.3z"/>
		<path class="st0" d="M1360.9,54.1c23.7-4.9,57.8-7.6,90.1-7.6c50.2,0,82.6,9.2,105.3,29.7c18.4,16.2,28.6,41,28.6,69.1
			c0,48-30.2,79.9-68.5,92.8v1.6c28.1,9.7,44.8,35.6,53.4,73.4c11.9,50.7,20.5,85.8,28.1,99.9h-48.6c-5.9-10.3-14-41.6-24.3-86.9
			c-10.8-50.2-30.2-69.1-72.9-70.7h-44.3v157.6h-47V54.1z M1407.8,219.8h48c50.2,0,82-27.5,82-69.1c0-47-34-67.5-83.7-68
			c-22.7,0-38.9,2.2-46.4,4.3V219.8z"/>
		<path class="st0" d="M1839.6,242.5h-141.4v131.2h157.6v39.4h-204.6V49.3h196.5v39.4h-149.5v115h141.4V242.5z"/>
	</g>
</g>
<g>
	<circle class="st0" cx="1261.8" cy="233" r="51.6"/>
	<circle class="st0" cx="935" cy="231.5" r="51.6"/>
	<circle class="st0" cx="973.3" cy="122.8" r="43"/>
	<circle class="st0" cx="1057.8" cy="69.6" r="33.6"/>
	<circle class="st0" cx="1138.3" cy="70.4" r="25"/>
	<circle class="st0" cx="1196.1" cy="98.5" r="17.2"/>
	<circle class="st0" cx="1229.8" cy="132.2" r="11.7"/>
	<circle class="st0" cx="1247" cy="163.4" r="8.6"/>
	<circle class="st1" cx="1221.9" cy="341.7" r="43"/>
	<circle class="st0" cx="1139.1" cy="393.3" r="33.6"/>
	<circle class="st0" cx="1057.8" cy="394.9" r="25.8"/>
	<circle class="st0" cx="1001.5" cy="366.7" r="18"/>
	<circle class="st0" cx="964.7" cy="333.1" r="12.5"/>
	<circle class="st0" cx="948.3" cy="301" r="8.6"/>
</g>
</svg>
