<?xml version="1.0" encoding="utf-8"?>
<!-- Generator: Adobe Illustrator 25.2.3, SVG Export Plug-In . SVG Version: 6.00 Build 0)  -->
<svg version="1.1" id="Layer_1" xmlns="http://www.w3.org/2000/svg" xmlns:xlink="http://www.w3.org/1999/xlink" x="0px" y="0px"
	 viewBox="0 0 1000 1000" style="enable-background:new 0 0 1000 1000;" xml:space="preserve">
<style type="text/css">
	.st0{opacity:0.5;fill:#83296B;enable-background:new    ;}
	.st1{opacity:0.5;fill:#434470;enable-background:new    ;}
	.st2{opacity:0.5;fill:#FCD069;enable-background:new    ;}
	.st3{fill:#CACBDA;}
	.st4{fill:#56587E;}
	.st5{clip-path:url(#SVGID_2_);fill:#8F4279;}
	.st6{clip-path:url(#SVGID_2_);fill:#FCD47F;}
	.st7{clip-path:url(#SVGID_4_);fill:#8F4279;}
	.st8{clip-path:url(#SVGID_4_);fill:#FCD47F;}
	.st9{clip-path:url(#SVGID_6_);fill:#8F4279;}
	.st10{clip-path:url(#SVGID_6_);fill:#FCD47F;}
	.st11{clip-path:url(#SVGID_8_);fill:#8F4279;}
	.st12{clip-path:url(#SVGID_8_);fill:#FCD47F;}
	.st13{clip-path:url(#SVGID_10_);fill:#8F4279;}
	.st14{clip-path:url(#SVGID_10_);fill:#FCD47F;}
	.st15{clip-path:url(#SVGID_12_);fill:#8F4279;}
	.st16{clip-path:url(#SVGID_12_);fill:#FCD47F;}
	.st17{clip-path:url(#SVGID_14_);fill:#8F4279;}
	.st18{clip-path:url(#SVGID_14_);fill:#FCD47F;}
	.st19{clip-path:url(#SVGID_16_);fill:#8F4279;}
	.st20{clip-path:url(#SVGID_16_);fill:#FCD47F;}
	.st21{clip-path:url(#SVGID_18_);fill:#8F4279;}
	.st22{clip-path:url(#SVGID_18_);fill:#FCD47F;}
	.st23{clip-path:url(#SVGID_20_);fill:#8F4279;}
	.st24{clip-path:url(#SVGID_20_);fill:#FCD47F;}
	.st25{clip-path:url(#SVGID_22_);fill:#8F4279;}
	.st26{clip-path:url(#SVGID_22_);fill:#FCD47F;}
	.st27{clip-path:url(#SVGID_24_);fill:#56587E;}
	.st28{clip-path:url(#SVGID_26_);fill:#8F4279;}
	.st29{clip-path:url(#SVGID_26_);fill:#FCD47F;}
	.st30{clip-path:url(#SVGID_28_);fill:#56587E;}
	.st31{clip-path:url(#SVGID_30_);fill:#8F4279;}
	.st32{clip-path:url(#SVGID_30_);fill:#FCD47F;}
</style>
<circle class="st0" cx="168.84" cy="817.76" r="58.84"/>
<circle class="st1" cx="866.68" cy="268.53" r="63.34"/>
<circle class="st2" cx="224.01" cy="247.12" r="42.16"/>
<path class="st3" d="M317.19,790.52L130.61,541.04c-22.31-29.83-16.21-72.1,13.62-94.41l397.24-297.1
	c29.83-22.31,72.1-16.21,94.41,13.62l186.58,249.47c22.31,29.83,16.21,72.1-13.62,94.41l-397.24,297.1
	C381.77,826.44,339.5,820.35,317.19,790.52z"/>
<path class="st4" d="M249.57,642.12l4.28,5.72c4.4,5.88,12.73,7.08,18.61,2.68l424.39-317.4c5.88-4.4,7.08-12.73,2.68-18.61
	l-4.28-5.72c-4.4-5.88-12.73-7.08-18.61-2.68l-424.39,317.4C246.37,627.91,245.17,636.24,249.57,642.12z"/>
<g>
	<defs>
		<circle id="SVGID_1_" cx="580.96" cy="248.58" r="23.9"/>
	</defs>
	<clipPath id="SVGID_2_">
		<use xlink:href="#SVGID_1_"  style="overflow:visible;"/>
	</clipPath>
	<circle class="st5" cx="580.96" cy="248.58" r="23.9"/>
	
		<rect x="572.32" y="235.8" transform="matrix(-0.5989 -0.8008 0.8008 -0.5989 730.7488 890.9388)" class="st6" width="32.34" height="53.36"/>
</g>
<g>
	<defs>
		<circle id="SVGID_3_" cx="491.42" cy="314.94" r="23.9"/>
	</defs>
	<clipPath id="SVGID_4_">
		<use xlink:href="#SVGID_3_"  style="overflow:visible;"/>
	</clipPath>
	<circle class="st7" cx="491.42" cy="314.94" r="23.9"/>
	
		<rect x="482.77" y="302.16" transform="matrix(-0.5989 -0.8008 0.8008 -0.5989 534.4373 925.3426)" class="st8" width="32.34" height="53.36"/>
</g>
<g>
	<defs>
		<circle id="SVGID_5_" cx="402.73" cy="381.58" r="23.9"/>
	</defs>
	<clipPath id="SVGID_6_">
		<use xlink:href="#SVGID_5_"  style="overflow:visible;"/>
	</clipPath>
	<circle class="st9" cx="402.73" cy="381.58" r="23.9"/>
	
		<rect x="394.08" y="368.8" transform="matrix(-0.5989 -0.8008 0.8008 -0.5989 339.2518 960.864)" class="st10" width="32.34" height="53.36"/>
</g>
<g>
	<defs>
		<circle id="SVGID_7_" cx="313.18" cy="447.94" r="23.9"/>
	</defs>
	<clipPath id="SVGID_8_">
		<use xlink:href="#SVGID_7_"  style="overflow:visible;"/>
	</clipPath>
	<circle class="st11" cx="313.18" cy="447.94" r="23.9"/>
	
		<rect x="304.54" y="435.16" transform="matrix(-0.5989 -0.8008 0.8008 -0.5989 142.9402 995.2678)" class="st12" width="32.34" height="53.36"/>
</g>
<g>
	<defs>
		<circle id="SVGID_9_" cx="224.49" cy="514.58" r="23.9"/>
	</defs>
	<clipPath id="SVGID_10_">
		<use xlink:href="#SVGID_9_"  style="overflow:visible;"/>
	</clipPath>
	<circle class="st13" cx="224.49" cy="514.58" r="23.9"/>
	
		<rect x="215.84" y="501.8" transform="matrix(-0.5989 -0.8008 0.8008 -0.5989 -52.2453 1030.7892)" class="st14" width="32.34" height="53.36"/>
</g>
<g>
	<defs>
		<circle id="SVGID_11_" cx="722.17" cy="437.66" r="23.9"/>
	</defs>
	<clipPath id="SVGID_12_">
		<use xlink:href="#SVGID_11_"  style="overflow:visible;"/>
	</clipPath>
	<circle class="st15" cx="722.17" cy="437.66" r="23.9"/>
	
		<rect x="713.52" y="424.88" transform="matrix(-0.5989 -0.8008 0.8008 -0.5989 805.1032 1306.3462)" class="st16" width="32.34" height="53.36"/>
</g>
<g>
	<defs>
		<circle id="SVGID_13_" cx="632.63" cy="504.02" r="23.9"/>
	</defs>
	<clipPath id="SVGID_14_">
		<use xlink:href="#SVGID_13_"  style="overflow:visible;"/>
	</clipPath>
	<circle class="st17" cx="632.63" cy="504.02" r="23.9"/>
	
		<rect x="623.98" y="491.24" transform="matrix(-0.5989 -0.8008 0.8008 -0.5989 608.7917 1340.75)" class="st18" width="32.34" height="53.36"/>
</g>
<g>
	<defs>
		<circle id="SVGID_15_" cx="543.93" cy="570.66" r="23.9"/>
	</defs>
	<clipPath id="SVGID_16_">
		<use xlink:href="#SVGID_15_"  style="overflow:visible;"/>
	</clipPath>
	<circle class="st19" cx="543.93" cy="570.66" r="23.9"/>
	
		<rect x="535.28" y="557.88" transform="matrix(-0.5989 -0.8008 0.8008 -0.5989 413.6061 1376.2715)" class="st20" width="32.34" height="53.36"/>
</g>
<g>
	<defs>
		<circle id="SVGID_17_" cx="454.39" cy="637.02" r="23.9"/>
	</defs>
	<clipPath id="SVGID_18_">
		<use xlink:href="#SVGID_17_"  style="overflow:visible;"/>
	</clipPath>
	<circle class="st21" cx="454.39" cy="637.02" r="23.9"/>
	
		<rect x="445.74" y="624.24" transform="matrix(-0.5989 -0.8008 0.8008 -0.5989 217.2946 1410.6752)" class="st22" width="32.34" height="53.36"/>
</g>
<g>
	<defs>
		<circle id="SVGID_19_" cx="365.69" cy="703.66" r="23.9"/>
	</defs>
	<clipPath id="SVGID_20_">
		<use xlink:href="#SVGID_19_"  style="overflow:visible;"/>
	</clipPath>
	<circle class="st23" cx="365.69" cy="703.66" r="23.9"/>
	
		<rect x="357.04" y="690.88" transform="matrix(-0.5989 -0.8008 0.8008 -0.5989 22.109 1446.1967)" class="st24" width="32.34" height="53.36"/>
</g>
<g>
	<defs>
		<circle id="SVGID_21_" cx="697.98" cy="806.33" r="23.9"/>
	</defs>
	<clipPath id="SVGID_22_">
		<use xlink:href="#SVGID_21_"  style="overflow:visible;"/>
	</clipPath>
	<circle class="st25" cx="697.98" cy="806.33" r="23.9"/>
	
		<rect x="689.33" y="793.55" transform="matrix(-0.5989 -0.8008 0.8008 -0.5989 471.1927 1876.4458)" class="st26" width="32.34" height="53.36"/>
</g>
<g>
	<defs>
		<circle id="SVGID_23_" cx="632.03" cy="504.2" r="23.9"/>
	</defs>
	<clipPath id="SVGID_24_">
		<use xlink:href="#SVGID_23_"  style="overflow:visible;"/>
	</clipPath>
	<circle class="st27" cx="632.03" cy="504.2" r="23.9"/>
	
		<rect x="611.38" y="462.37" transform="matrix(0.4207 0.9072 -0.9072 0.4207 807.2164 -286.0012)" class="st27" width="32.34" height="53.36"/>
</g>
<g>
	<defs>
		<circle id="SVGID_25_" cx="721.95" cy="715.21" r="23.9"/>
	</defs>
	<clipPath id="SVGID_26_">
		<use xlink:href="#SVGID_25_"  style="overflow:visible;"/>
	</clipPath>
	<circle class="st28" cx="721.95" cy="715.21" r="23.9"/>
	
		<rect x="694.75" y="699.85" transform="matrix(0.5864 -0.81 0.81 0.5864 -294.4655 876.3338)" class="st29" width="32.34" height="53.36"/>
</g>
<g>
	<defs>
		<circle id="SVGID_27_" cx="722.38" cy="438.26" r="23.9"/>
	</defs>
	<clipPath id="SVGID_28_">
		<use xlink:href="#SVGID_27_"  style="overflow:visible;"/>
	</clipPath>
	<circle class="st30" cx="722.38" cy="438.26" r="23.9"/>
	
		<rect x="701.72" y="396.43" transform="matrix(0.4207 0.9072 -0.9072 0.4207 799.736 -406.1649)" class="st30" width="32.34" height="53.36"/>
</g>
<g>
	<defs>
		<circle id="SVGID_29_" cx="815.68" cy="767.78" r="23.9"/>
	</defs>
	<clipPath id="SVGID_30_">
		<use xlink:href="#SVGID_29_"  style="overflow:visible;"/>
	</clipPath>
	<circle class="st31" cx="815.68" cy="767.78" r="23.9"/>
	
		<rect x="801.1" y="725.37" transform="matrix(0.0455 0.999 -0.999 0.0455 1531.3416 -98.6068)" class="st32" width="32.34" height="53.36"/>
</g>
</svg>
