<?xml version="1.0" encoding="utf-8"?>
<!-- Generator: Adobe Illustrator 25.2.3, SVG Export Plug-In . SVG Version: 6.00 Build 0)  -->
<svg version="1.1" id="Layer_1" xmlns="http://www.w3.org/2000/svg" xmlns:xlink="http://www.w3.org/1999/xlink" x="0px" y="0px"
	 viewBox="0 0 1000 1000" style="enable-background:new 0 0 1000 1000;" xml:space="preserve">
<style type="text/css">
	.st0{opacity:0.5;fill:#FCD069;enable-background:new    ;}
	.st1{opacity:0.5;fill:#83296B;enable-background:new    ;}
	.st2{opacity:0.5;fill:#434470;enable-background:new    ;}
	.st3{opacity:0.9;}
	.st4{fill:#C4C5D6;}
	.st5{fill:#83296B;}
	.st6{fill:#434470;}
	.st7{enable-background:new    ;}
	.st8{fill:#FCD069;}
</style>
<circle class="st0" cx="227.44" cy="328.16" r="172.44"/>
<circle class="st1" cx="738.92" cy="157.61" r="36.68"/>
<circle class="st1" cx="859.25" cy="788.75" r="68.25"/>
<circle class="st2" cx="162.48" cy="678.24" r="32.53"/>
<circle class="st0" cx="859.06" cy="441.75" r="30.54"/>
<g class="st3">
	<path class="st4" d="M699.26,890.75H300.74c-35.48,0-64.24-28.76-64.24-64.24V291.99c0-35.48,28.76-64.24,64.24-64.24h398.53
		c35.48,0,64.24,28.76,64.24,64.24v534.53C763.5,861.99,734.74,890.75,699.26,890.75z"/>
	<path class="st5" d="M370.22,320.25h-7.44c-10.37,0-18.78-8.41-18.78-18.78v-77.44c0-10.37,8.41-18.78,18.78-18.78h7.44
		c10.37,0,18.78,8.41,18.78,18.78v77.44C389,311.84,380.59,320.25,370.22,320.25z"/>
	<path class="st5" d="M505.22,320.25h-7.44c-10.37,0-18.78-8.41-18.78-18.78v-77.44c0-10.37,8.41-18.78,18.78-18.78h7.44
		c10.37,0,18.78,8.41,18.78,18.78v77.44C524,311.84,515.59,320.25,505.22,320.25z"/>
	<path class="st5" d="M638.22,320.25h-7.44c-10.37,0-18.78-8.41-18.78-18.78v-77.44c0-10.37,8.41-18.78,18.78-18.78h7.44
		c10.37,0,18.78,8.41,18.78,18.78v77.44C657,311.84,648.59,320.25,638.22,320.25z"/>
	<path class="st6" d="M320.73,489.47V439.8c0-10.37,8.41-18.78,18.78-18.78h324.71c10.37,0,18.78,8.41,18.78,18.78v49.67
		c0,10.37-8.41,18.78-18.78,18.78H339.51C329.14,508.25,320.73,499.84,320.73,489.47z"/>
	<path class="st6" d="M321.1,627.36v-49.67c0-10.37,8.41-18.78,18.78-18.78h324.71c10.37,0,18.78,8.41,18.78,18.78v49.67
		c0,10.37-8.41,18.78-18.78,18.78H339.88C329.51,646.14,321.1,637.73,321.1,627.36z"/>
	<path class="st6" d="M321.1,770.36v-49.67c0-10.37,8.41-18.78,18.78-18.78h324.71c10.37,0,18.78,8.41,18.78,18.78v49.67
		c0,10.37-8.41,18.78-18.78,18.78H339.88C329.51,789.14,321.1,780.73,321.1,770.36z"/>
	<g class="st7">
		<path class="st8" d="M620.78,494.24L620.78,494.24c-4.33,4.33-11.35,4.33-15.68,0l-24.38-24.38c-4.33-4.33-4.33-11.35,0-15.68v0
			c4.33-4.33,11.35-4.33,15.68,0l24.38,24.38C625.1,482.9,625.1,489.92,620.78,494.24z"/>
		<path class="st8" d="M605.5,492.45L605.5,492.45c-4.72-4.72-4.72-12.36,0-17.08l41.64-41.64c4.72-4.72,12.36-4.72,17.08,0l0,0
			c4.72,4.72,4.72,12.36,0,17.08l-41.64,41.64C617.86,497.16,610.22,497.16,605.5,492.45z"/>
	</g>
	<g class="st7">
		<path class="st8" d="M622.14,630.04L622.14,630.04c-4.33,4.33-11.35,4.33-15.68,0l-24.38-24.38c-4.33-4.33-4.33-11.35,0-15.68v0
			c4.33-4.33,11.35-4.33,15.68,0l24.38,24.38C626.47,618.69,626.47,625.71,622.14,630.04z"/>
		<path class="st8" d="M606.87,628.24L606.87,628.24c-4.72-4.72-4.72-12.36,0-17.08l41.64-41.64c4.72-4.72,12.36-4.72,17.08,0l0,0
			c4.72,4.72,4.72,12.36,0,17.08l-41.64,41.64C619.23,632.96,611.59,632.96,606.87,628.24z"/>
	</g>
	<g class="st7">
		<path class="st8" d="M621.14,776.04L621.14,776.04c-4.33,4.33-11.35,4.33-15.68,0l-24.38-24.38c-4.33-4.33-4.33-11.35,0-15.68v0
			c4.33-4.33,11.35-4.33,15.68,0l24.38,24.38C625.47,764.69,625.47,771.71,621.14,776.04z"/>
		<path class="st8" d="M605.87,774.24L605.87,774.24c-4.72-4.72-4.72-12.36,0-17.08l41.64-41.64c4.72-4.72,12.36-4.72,17.08,0l0,0
			c4.72,4.72,4.72,12.36,0,17.08l-41.64,41.64C618.23,778.96,610.59,778.96,605.87,774.24z"/>
	</g>
</g>
</svg>
