<?xml version="1.0" encoding="utf-8"?>
<!-- Generator: Adobe Illustrator 25.2.3, SVG Export Plug-In . SVG Version: 6.00 Build 0)  -->
<svg version="1.1" id="Layer_1" xmlns="http://www.w3.org/2000/svg" xmlns:xlink="http://www.w3.org/1999/xlink" x="0px" y="0px"
	 viewBox="0 0 1000 1000" style="enable-background:new 0 0 1000 1000;" xml:space="preserve">
<style type="text/css">
	.st0{opacity:0.5;fill:#83296B;enable-background:new    ;}
	.st1{opacity:0.5;fill:#434470;enable-background:new    ;}
	.st2{opacity:0.5;fill:#FCD069;enable-background:new    ;}
	.st3{opacity:0.9;}
	.st4{fill:#434470;}
	.st5{fill:#FCD069;}
</style>
<circle class="st0" cx="754.92" cy="253.5" r="105.51"/>
<circle class="st0" cx="251.56" cy="388.41" r="33.26"/>
<circle class="st1" cx="165.36" cy="470.96" r="72.36"/>
<circle class="st2" cx="873.6" cy="603.87" r="34.4"/>
<g class="st3">
	<path class="st4" d="M459.57,199.38L114.45,797.15c-17.81,30.85,4.45,69.42,40.08,69.42h690.24c35.63,0,57.89-38.57,40.08-69.42
		L539.73,199.38C521.92,168.53,477.39,168.53,459.57,199.38z"/>
	<path class="st5" d="M513.88,668.06l63.14-245.64c2.3-8.94-4.45-17.64-13.68-17.64H437.06c-9.23,0-15.98,8.7-13.68,17.64
		l63.14,245.64C490.15,682.2,510.24,682.2,513.88,668.06z"/>
	<circle class="st5" cx="499.75" cy="746.62" r="44.49"/>
</g>
</svg>
