<?xml version="1.0" encoding="utf-8"?>
<!-- Generator: Adobe Illustrator 25.2.3, SVG Export Plug-In . SVG Version: 6.00 Build 0)  -->
<svg version="1.1" id="Layer_1" xmlns="http://www.w3.org/2000/svg" xmlns:xlink="http://www.w3.org/1999/xlink" x="0px" y="0px"
	 viewBox="0 0 1000 1000" style="enable-background:new 0 0 1000 1000;" xml:space="preserve">
<style type="text/css">
	.st0{opacity:0.5;fill:#83296B;enable-background:new    ;}
	.st1{opacity:0.5;fill:#434470;enable-background:new    ;}
	.st2{opacity:0.5;fill:#FCD069;enable-background:new    ;}
	.st3{opacity:0.9;}
	.st4{fill:#434470;}
	.st5{fill:#C4C5D6;}
	.st6{fill:#FCD069;}
</style>
<circle class="st0" cx="235.8" cy="322.17" r="172.44"/>
<circle class="st0" cx="820.28" cy="256.61" r="36.68"/>
<circle class="st1" cx="170.84" cy="672.25" r="32.53"/>
<circle class="st2" cx="867.42" cy="512.76" r="30.54"/>
<g class="st3">
	<path class="st4" d="M707.62,884.76H309.1c-35.48,0-64.24-28.76-64.24-64.24V285.99c0-35.48,28.76-64.24,64.24-64.24h398.53
		c35.48,0,64.24,28.76,64.24,64.24v534.53C771.86,856,743.1,884.76,707.62,884.76z"/>
	<path class="st5" d="M378.58,314.26h-7.44c-10.37,0-18.78-8.41-18.78-18.78v-77.44c0-10.37,8.41-18.78,18.78-18.78h7.44
		c10.37,0,18.78,8.41,18.78,18.78v77.44C397.36,305.85,388.95,314.26,378.58,314.26z"/>
	<path class="st5" d="M513.58,314.26h-7.44c-10.37,0-18.78-8.41-18.78-18.78v-77.44c0-10.37,8.41-18.78,18.78-18.78h7.44
		c10.37,0,18.78,8.41,18.78,18.78v77.44C532.36,305.85,523.95,314.26,513.58,314.26z"/>
	<path class="st5" d="M646.58,314.26h-7.44c-10.37,0-18.78-8.41-18.78-18.78v-77.44c0-10.37,8.41-18.78,18.78-18.78h7.44
		c10.37,0,18.78,8.41,18.78,18.78v77.44C665.36,305.85,656.95,314.26,646.58,314.26z"/>
</g>
<g>
	<path class="st6" d="M549.48,784c-100.63,0-182.5-81.87-182.5-182.5c0-100.63,81.87-182.5,182.5-182.5s182.5,81.87,182.5,182.5
		C731.98,702.13,650.11,784,549.48,784z M549.48,512.97c-48.81,0-88.53,39.71-88.53,88.53s39.71,88.53,88.53,88.53
		s88.53-39.71,88.53-88.53S598.3,512.97,549.48,512.97z"/>
</g>
<circle class="st1" cx="863.45" cy="740.02" r="62.27"/>
<path class="st6" d="M839.33,907.33L839.33,907.33c-18.94,18.94-49.65,18.94-68.59,0L623.67,760.26
	c-18.94-18.94-18.94-49.65,0-68.59l0,0c18.94-18.94,49.65-18.94,68.59,0l147.08,147.08C858.27,857.68,858.27,888.39,839.33,907.33z"
	/>
<circle class="st2" cx="119.99" cy="770.29" r="30.54"/>
</svg>
