<?xml version="1.0" encoding="utf-8"?>
<!-- Generator: Adobe Illustrator 21.1.0, SVG Export Plug-In . SVG Version: 6.00 Build 0)  -->
<svg version="1.1" id="Layer_1" xmlns="http://www.w3.org/2000/svg" xmlns:xlink="http://www.w3.org/1999/xlink" x="0px" y="0px"
	 viewBox="0 0 50 50" style="enable-background:new 0 0 50 50;" xml:space="preserve">
<style type="text/css">
	.st0{fill:#43456F;}
</style>
<path class="st0" d="M25.6,48.5h-1.1c-3.9,0-7-3.1-7-7v-33c0-3.9,3.1-7,7-7h1.1c3.9,0,7,3.1,7,7v33C32.5,45.4,29.4,48.5,25.6,48.5z"
	/>
<path class="st0" d="M1.5,25.5v-1.1c0-3.9,3.1-7,7-7h33c3.9,0,7,3.1,7,7v1.1c0,3.9-3.1,7-7,7h-33C4.6,32.5,1.5,29.4,1.5,25.5z"/>
</svg>
