<?xml version="1.0" encoding="utf-8"?>
<!-- Generator: Adobe Illustrator 25.2.3, SVG Export Plug-In . SVG Version: 6.00 Build 0)  -->
<svg version="1.1" id="Layer_1" xmlns="http://www.w3.org/2000/svg" xmlns:xlink="http://www.w3.org/1999/xlink" x="0px" y="0px"
	 viewBox="0 0 1000 1000" style="enable-background:new 0 0 1000 1000;" xml:space="preserve">
<style type="text/css">
	.st0{opacity:0.5;fill:#FCD069;enable-background:new    ;}
	.st1{opacity:0.5;fill:#83296B;enable-background:new    ;}
	.st2{opacity:0.5;fill:#434470;enable-background:new    ;}
	.st3{fill:#FCD069;}
	.st4{fill:#56587E;}
	.st5{fill:#CACBDA;}
	.st6{fill:#8F4279;}
	.st7{clip-path:url(#SVGID_2_);fill:#8F4279;}
	.st8{clip-path:url(#SVGID_2_);fill:#FCD47F;}
	.st9{clip-path:url(#SVGID_4_);fill:#CACBDA;}
	.st10{clip-path:url(#SVGID_4_);fill:#56587E;}
	.st11{clip-path:url(#SVGID_6_);fill:#CACBDA;}
	.st12{clip-path:url(#SVGID_6_);fill:#56587E;}
	.st13{clip-path:url(#SVGID_8_);fill:#8F4279;}
	.st14{clip-path:url(#SVGID_8_);fill:#FCD47F;}
</style>
<circle class="st0" cx="847.08" cy="182.68" r="35.16"/>
<circle class="st1" cx="700.41" cy="361.15" r="49.08"/>
<circle class="st2" cx="136.19" cy="647.42" r="52.83"/>
<circle class="st0" cx="282.15" cy="897.57" r="35.16"/>
<g>
	<path class="st3" d="M508.36,686.89H283.42c-12.51,0-22.64-10.14-22.64-22.64V220.34c0-12.51,10.14-22.64,22.64-22.64h224.94
		c12.51,0,22.64,10.14,22.64,22.64v443.91C531,676.76,520.87,686.89,508.36,686.89z"/>
	<path class="st4" d="M542.8,247.39H248.98c-7.21,0-13.05-5.84-13.05-13.05v-73.3c0-7.21,5.84-13.05,13.05-13.05H542.8
		c7.21,0,13.05,5.84,13.05,13.05v73.3C555.85,241.55,550.01,247.39,542.8,247.39z"/>
	<rect x="260.78" y="360.76" class="st5" width="270.22" height="197.23"/>
	<path class="st6" d="M417.17,536.25h-42.55c-4.55,0-8.23-3.69-8.23-8.23V390.74c0-4.55,3.69-8.23,8.23-8.23h42.55
		c4.55,0,8.23,3.69,8.23,8.23v137.28C425.4,532.57,421.71,536.25,417.17,536.25z"/>
	<path class="st6" d="M319.8,481.26v-42.2c0-4.64,3.76-8.41,8.41-8.41h136.93c4.64,0,8.41,3.76,8.41,8.41v42.2
		c0,4.64-3.76,8.41-8.41,8.41H328.2C323.56,489.66,319.8,485.9,319.8,481.26z"/>
</g>
<g>
	<defs>
		<path id="SVGID_1_" d="M757.27,683.55L757.27,683.55c-31.7-9.8-49.46-43.44-39.66-75.14l34.46-111.51
			c9.8-31.7,43.44-49.46,75.14-39.66l0,0c31.7,9.8,49.46,43.44,39.66,75.14l-34.46,111.51
			C822.61,675.59,788.97,693.34,757.27,683.55z"/>
	</defs>
	<clipPath id="SVGID_2_">
		<use xlink:href="#SVGID_1_"  style="overflow:visible;"/>
	</clipPath>
	
		<rect x="711.63" y="567.95" transform="matrix(0.2953 -0.9554 0.9554 0.2953 -56.6963 1183.3424)" class="st7" width="124.3" height="124.3"/>
	
		<rect x="748.33" y="449.19" transform="matrix(0.2953 -0.9554 0.9554 0.2953 82.6375 1134.7113)" class="st8" width="124.3" height="124.3"/>
</g>
<g>
	<defs>
		<circle id="SVGID_3_" cx="811.71" cy="835.43" r="62.38"/>
	</defs>
	<clipPath id="SVGID_4_">
		<use xlink:href="#SVGID_3_"  style="overflow:visible;"/>
	</clipPath>
	<circle class="st9" cx="811.71" cy="835.43" r="62.38"/>
	
		<rect x="799.28" y="737.27" transform="matrix(-0.6132 0.7899 -0.7899 -0.6132 1994.8407 636.933)" class="st10" width="84.38" height="139.23"/>
</g>
<g>
	<defs>
		<circle id="SVGID_5_" cx="522.14" cy="788.47" r="56.83"/>
	</defs>
	<clipPath id="SVGID_6_">
		<use xlink:href="#SVGID_5_"  style="overflow:visible;"/>
	</clipPath>
	<circle class="st11" cx="522.14" cy="788.47" r="56.83"/>
	
		<rect x="478.22" y="762.21" transform="matrix(-3.193933e-07 -1 1 -3.193933e-07 -308.9736 1342.3035)" class="st12" width="76.88" height="126.86"/>
</g>
<g>
	<defs>
		<path id="SVGID_7_" d="M542.16,610.23L542.16,610.23c24.62-22.24,62.61-20.32,84.86,4.3l78.24,86.6
			c22.24,24.62,20.32,62.61-4.3,84.86l0,0c-24.62,22.24-62.61,20.32-84.86-4.3l-78.24-86.6
			C515.61,670.47,517.53,632.48,542.16,610.23z"/>
	</defs>
	<clipPath id="SVGID_8_">
		<use xlink:href="#SVGID_7_"  style="overflow:visible;"/>
	</clipPath>
	
		<rect x="517.5" y="589.59" transform="matrix(0.6704 0.742 -0.742 0.6704 674.6542 -215.2894)" class="st13" width="124.3" height="124.3"/>
	
		<rect x="600.84" y="681.82" transform="matrix(0.6704 0.742 -0.742 0.6704 770.5605 -246.7217)" class="st14" width="124.3" height="124.3"/>
</g>
</svg>
