<?xml version="1.0" encoding="utf-8"?>
<!-- Generator: Adobe Illustrator 21.1.0, SVG Export Plug-In . SVG Version: 6.00 Build 0)  -->
<svg version="1.1" id="Layer_1" xmlns="http://www.w3.org/2000/svg" xmlns:xlink="http://www.w3.org/1999/xlink" x="0px" y="0px"
	 viewBox="0 0 54 50" style="enable-background:new 0 0 54 50;" xml:space="preserve">
<path class="st0" d="M0,48.6c1-4.3,2-8.5,3-12.8c0-0.1,0.1-0.2,0.2-0.3l0.1-0.1l37.8-35c0.4-0.4,1.2-0.4,1.7,0
	c1.8,1,4.1,2.6,6.4,5.2c2.2,2.4,3.6,4.8,4.5,6.6c0,0.1,0.3,0.3,0.3,0.9c0,0.3-0.1,0.6-0.4,0.8L15.8,48.9c-0.1,0.1-0.3,0.2-0.4,0.2
	h-0.1c-4.6,0.3-9.3,0.6-14,0.9C0.6,50-0.1,49.2,0,48.6z" fill="#000"/>
</svg>
