<?xml version="1.0" encoding="utf-8"?>
<!-- Generator: Adobe Illustrator 21.1.0, SVG Export Plug-In . SVG Version: 6.00 Build 0)  -->
<svg version="1.1" id="Layer_1" xmlns="http://www.w3.org/2000/svg" xmlns:xlink="http://www.w3.org/1999/xlink" x="0px" y="0px"
	 viewBox="0 0 62 50" style="enable-background:new 0 0 62 50;" xml:space="preserve">
<path class="st0" d="M61.3,10.1v37.2c0,1.4-1.1,2.5-2.5,2.5H3.2c-1.4,0-2.5-1.1-2.5-2.5V10.1c0-0.5,0.2-1.2,0.7-1.7
	C2,7.8,2.5,8.1,3.2,7.6c0.8-0.5,1.1-2,1.6-4.9C4.9,2.1,5,1.5,5.5,1c0.5-0.5,1.2-0.7,1.7-0.7H33c0.3,0,1,0.2,1.7,0.7
	c0.8,0.6,1.1,1.5,1.1,1.7c0.4,1.6,0.8,3.3,1.2,4.9c7.3,0,14.5,0,21.8,0C60.2,7.6,61.3,8.8,61.3,10.1z" fill="#000"/>
</svg>
