<?xml version="1.0" encoding="utf-8"?>
<!-- Generator: Adobe Illustrator 21.1.0, SVG Export Plug-In . SVG Version: 6.00 Build 0)  -->
<svg version="1.1" id="Layer_1" xmlns="http://www.w3.org/2000/svg" xmlns:xlink="http://www.w3.org/1999/xlink" x="0px" y="0px"
	 viewBox="0 0 2705 2000" style="enable-background:new 0 0 2705 2000;" xml:space="preserve">
<style type="text/css">
	.st0{fill:#C4C5D6;}
	.st1{fill:#434470;}
	.st2{fill:#83296B;}
	.st3{fill:#FCD069;}
	.st4{opacity:0.9;}
	.st5{opacity:0.5;fill:#FCD069;}
	.st6{opacity:0.5;fill:#83296B;}
	.st7{opacity:0.5;fill:#434470;}
</style>
<g>
	<path class="st0" d="M2085.8,1712.3c-86.2,67.7-346,253.2-721.6,257c-389.9,3.9-660.1-190.4-745-257c0-428.7,331-781.4,733.3-781.4
		S2085.8,1283.7,2085.8,1712.3z"/>
	<circle class="st1" cx="1351.7" cy="634.6" r="470.5"/>
	<circle class="st1" cx="1349" cy="1340.9" r="47.1"/>
	<circle class="st1" cx="1349" cy="1550.4" r="47.1"/>
	<circle class="st1" cx="1349" cy="1759.9" r="47.1"/>
	<g>
		<path class="st2" d="M1762.8,1580.1h-52.3c-5.8,0-10.5-4.7-10.5-10.5v-534.2c0-5.8,4.7-10.5,10.5-10.5h52.3
			c5.8,0,10.5,4.7,10.5,10.5v534.2C1773.3,1575.3,1768.6,1580.1,1762.8,1580.1z"/>
		<g>
			<circle class="st3" cx="1734.9" cy="1608" r="97.8"/>
			<circle class="st2" cx="1734.9" cy="1608" r="73.3"/>
		</g>
	</g>
	<path class="st2" d="M991.1,1269.3h-52.3c-5.8,0-10.5-4.7-10.5-10.5v-223.4c0-5.8,4.7-10.5,10.5-10.5h52.3
		c5.8,0,10.5,4.7,10.5,10.5v223.4C1001.6,1264.5,996.8,1269.3,991.1,1269.3z"/>
	<g>
		<g>
			<path class="st2" d="M1135.1,1289.9c22.7,36.7,24,72.5,24.1,76.8l3.4,230.1c0.3,19.4-20,35.5-45.3,35.9
				c-25.3,0.4-46.1-15.1-46.3-34.5c-1.1-76.7-2.3-153.4-3.4-230.1c-1.6-8.7-8.2-39.6-36.2-60.9c-25.1-19-52.1-18.8-68.1-18.7
				c-15.8,0.1-42.7,0.3-67.5,19.5c-28.6,22.2-34.7,54.5-36,63.2l3.4,230.1c0.3,19.4-20,35.5-45.3,35.9s-46.1-15.1-46.3-34.5
				l-3.4-230.1c-0.1-4.2-0.6-40.1,21-77.4c31.6-53.9,92.8-84,171.8-85.1C1039.9,1208.8,1101.9,1237,1135.1,1289.9z"/>
		</g>
		<g>
			<g>
				<path class="st3" d="M1048.2,1694.7l89.1-0.1c1.9,0,3.5,1.6,3.5,3.5l0,34.7c0,1.9-1.6,3.5-3.5,3.5l-89.1,0.1
					c-1.9,0-3.5-1.6-3.5-3.5l0-34.7C1044.7,1696.3,1046.3,1694.7,1048.2,1694.7z"/>
				<path class="st3" d="M1140.7,1602.8l0.1,130c0,1.9-1.6,3.5-3.5,3.5l-34.7,0c-1.9,0-3.5-1.6-3.5-3.5l-0.1-130
					c0-1.9,1.6-3.5,3.5-3.5l34.7,0C1139.2,1599.3,1140.7,1600.9,1140.7,1602.8z"/>
			</g>
			<circle class="st2" cx="1040.6" cy="1720" r="32.7"/>
		</g>
		<g>
			<g>
				<path class="st3" d="M887.8,1694.8l-89.1,0.1c-1.9,0-3.5,1.6-3.5,3.5l0,34.7c0,1.9,1.6,3.5,3.5,3.5l89.1-0.1
					c1.9,0,3.5-1.6,3.5-3.5l0-34.7C891.3,1696.4,889.7,1694.8,887.8,1694.8z"/>
				<path class="st3" d="M795.1,1603.1l0.1,130c0,1.9,1.6,3.5,3.5,3.5l34.7,0c1.9,0,3.5-1.6,3.5-3.5l-0.1-130c0-1.9-1.6-3.5-3.5-3.5
					l-34.7,0C796.7,1599.6,795.1,1601.2,795.1,1603.1z"/>
			</g>
			<circle class="st2" cx="895.4" cy="1720.2" r="32.7"/>
		</g>
	</g>
</g>
<g class="st4">
	<path class="st3" d="M2359,714.9h-877.4c-13.3,0-24-10.7-24-24V89.4c0-13.3,10.7-24,24-24H2359c13.3,0,24,10.7,24,24v601.5
		C2383,704.1,2372.3,714.9,2359,714.9z"/>
	<path class="st3" d="M1592.1,706.1c0,59.4,0,118.7,0,178.1c65.2-60.5,130.4-121.1,195.5-181.6
		C1722.4,703.8,1657.3,705,1592.1,706.1z"/>
	<path class="st2" d="M1980,621.4h-119.6c-3.3,0-6-2.7-6-6V164.5c0-3.3,2.7-6,6-6H1980c3.3,0,6,2.7,6,6v450.9
		C1986,618.7,1983.3,621.4,1980,621.4z"/>
	<path class="st2" d="M1689.6,450.5V331c0-3.3,2.7-6,6-6h450.9c3.3,0,6,2.7,6,6v119.6c0,3.3-2.7,6-6,6h-450.9
		C1692.3,456.5,1689.6,453.9,1689.6,450.5z"/>
</g>
<circle class="st5" cx="469" cy="540" r="132"/>
<circle class="st6" cx="697.5" cy="356.5" r="70.5"/>
<circle class="st7" cx="2453.5" cy="1668.5" r="70.5"/>
</svg>
