<?xml version="1.0" encoding="utf-8"?>
<!-- Generator: Adobe Illustrator 21.1.0, SVG Export Plug-In . SVG Version: 6.00 Build 0)  -->
<svg version="1.1" id="Layer_1" xmlns="http://www.w3.org/2000/svg" xmlns:xlink="http://www.w3.org/1999/xlink" x="0px" y="0px"
	 viewBox="0 0 2703 2000" style="enable-background:new 0 0 2703 2000;" xml:space="preserve">
<style type="text/css">
	.st0{fill:#434470;}
	.st1{fill:#C4C5D6;}
	.st2{fill:#FCD069;}
	.st3{fill:#83296B;}
	.st4{opacity:0.5;fill:#FCD069;}
	.st5{opacity:0.5;fill:#83296B;}
	.st6{opacity:0.5;fill:#434470;}
</style>
<g>
	<path class="st0" d="M1643.8,1985.5h-584.6c-181,0-329-148.1-329-329V343.5c0-181,148.1-329,329-329h584.6c181,0,329,148.1,329,329
		v1312.9C1972.8,1837.4,1824.8,1985.5,1643.8,1985.5z"/>
	<path class="st1" d="M1787.6,1687.4H910.5c-45,0-81.8-36.8-81.8-81.8V315.1c0-45,36.8-81.8,81.8-81.8h877.1
		c45,0,81.8,36.8,81.8,81.8v1290.5C1869.5,1650.6,1832.7,1687.4,1787.6,1687.4z"/>
	<path class="st2" d="M1488.5,120.3h-276.4c-3.3,0-6-2.7-6-6V97.4c0-3.3,2.7-6,6-6h276.4c3.3,0,6,2.7,6,6v16.8
		C1494.5,117.6,1491.8,120.3,1488.5,120.3z"/>
	<g>
		<circle class="st0" cx="1503.8" cy="478.6" r="46"/>
		<circle class="st0" cx="1212.4" cy="477.2" r="46"/>
		<circle class="st0" cx="1246.6" cy="380.3" r="38.3"/>
		<circle class="st0" cx="1321.9" cy="332.9" r="30"/>
		<circle class="st0" cx="1393.7" cy="333.6" r="22.3"/>
		<circle class="st0" cx="1445.2" cy="358.7" r="15.3"/>
		<circle class="st0" cx="1475.2" cy="388.7" r="10.5"/>
		<circle class="st0" cx="1490.6" cy="416.6" r="7.7"/>
		<circle class="st0" cx="1468.2" cy="575.5" r="38.3"/>
		<circle class="st0" cx="1394.4" cy="621.5" r="30"/>
		<circle class="st0" cx="1321.9" cy="622.9" r="23"/>
		<circle class="st0" cx="1271.7" cy="597.8" r="16"/>
		<circle class="st0" cx="1238.9" cy="567.8" r="11.2"/>
		<circle class="st0" cx="1224.3" cy="539.2" r="7.7"/>
	</g>
	<circle class="st2" cx="1356.3" cy="1849.7" r="68.5"/>
</g>
<g>
	<g>
		<circle class="st3" cx="1769.6" cy="1120.5" r="447.9"/>
		<circle class="st1" cx="1768.2" cy="1116.5" r="325.9"/>
	</g>
	<path class="st3" d="M2316.6,1880.3l-351.8-418.1c-11.7-13.9-9.9-34.9,4-46.6l103.1-86.7c13.9-11.7,34.9-9.9,46.6,4l351.8,418.1
		c11.7,13.9,9.9,34.9-4,46.6l-103.1,86.7C2349.4,1896,2328.4,1894.2,2316.6,1880.3z"/>
	<g>
		<path class="st3" d="M1941.2,1020.1c0,67.9-28.6,109.2-97.2,138.6c-16.3,7-21.2,35.7-21.2,45.5c0,22.4-21.2,40.6-48.2,40.6
			c-26.1,0-47.3-18.2-47.3-40.6c0-9.1,1.7-87.5,74.3-119c32.6-14,44.9-25.9,44.9-65.1c0-33.6-31.8-60.9-71.8-60.9
			c-39.2,0-71,27.3-71,60.9c0,22.4-21.2,41.3-48.2,41.3c-26.1,0-47.3-18.9-47.3-41.3c0-78.4,75.1-142.8,166.5-142.7
			C1867,877.3,1941.3,941.7,1941.2,1020.1z M1822.8,1326.7c0,22.4-21.2,40.6-48.2,40.6c-26.1,0-47.3-18.2-47.3-40.6
			c0-23.1,21.2-41.3,47.3-41.3C1801.6,1285.4,1822.8,1303.6,1822.8,1326.7z"/>
	</g>
</g>
<circle class="st4" cx="340" cy="372" r="132"/>
<circle class="st5" cx="568.5" cy="188.5" r="70.5"/>
<circle class="st6" cx="427.5" cy="1638.5" r="70.5"/>
<circle class="st6" cx="2340.5" cy="645.5" r="70.5"/>
</svg>
