<?xml version="1.0" encoding="utf-8"?>
<!-- Generator: Adobe Illustrator 21.1.0, SVG Export Plug-In . SVG Version: 6.00 Build 0)  -->
<svg version="1.1" id="Layer_1" xmlns="http://www.w3.org/2000/svg" xmlns:xlink="http://www.w3.org/1999/xlink" x="0px" y="0px"
	 viewBox="0 0 2701 2000" style="enable-background:new 0 0 2701 2000;" xml:space="preserve">
<style type="text/css">
	.st0{opacity:0.9;}
	.st1{fill:#FCD069;}
	.st2{fill:#FFFFFF;}
	.st3{fill:#434470;}
	.st4{fill:#83296B;}
	.st5{fill:none;stroke:#FCD069;stroke-width:14;stroke-linecap:round;stroke-miterlimit:10;}
	.st6{opacity:0.5;fill:#FCD069;}
	.st7{opacity:0.5;fill:#83296B;}
	.st8{opacity:0.5;fill:#434470;}
</style>
<g class="st0">
	<path class="st1" d="M1771,1968.3L569.8,1713.8c-30.9-6.5-50.8-37.2-44.3-68.1L862,57.5c6.5-30.9,37.2-50.8,68.1-44.3l1201.2,254.5
		c30.9,6.5,50.8,37.2,44.3,68.1L1839,1924C1832.5,1954.9,1801.9,1974.8,1771,1968.3z"/>
	<path class="st2" d="M1706.5,1849.8L676.8,1631.6c-30.5-6.5-50.1-36.7-43.7-67.1L922.4,198.7c6.5-30.5,36.7-50.1,67.1-43.7
		l1029.7,218.1c30.5,6.5,50.1,36.7,43.7,67.1l-289.3,1365.7C1767.2,1836.6,1737,1856.2,1706.5,1849.8z"/>
	<path class="st3" d="M1752.9,408.8l-532-112.7c-6.5-1.4-10.6-7.8-9.3-14.2l43.3-204.2c1.4-6.5,7.8-10.6,14.2-9.3l532,112.7
		c6.5,1.4,10.6,7.8,9.3,14.2l-43.3,204.2C1765.8,406,1759.4,410.1,1752.9,408.8z"/>
	<path class="st4" d="M1828,986.1l-752.8-159.5c-6.5-1.4-10.6-7.8-9.3-14.2l21.1-99.5c1.4-6.5,7.8-10.6,14.2-9.3l752.8,159.5
		c6.5,1.4,10.6,7.8,9.3,14.2l-21.1,99.5C1840.9,983.3,1834.5,987.4,1828,986.1z"/>
	<path class="st4" d="M1789.5,1168.2l-752.8-159.5c-6.5-1.4-10.6-7.8-9.3-14.2l21.1-99.5c1.4-6.5,7.8-10.6,14.2-9.3l752.8,159.5
		c6.5,1.4,10.6,7.8,9.3,14.2l-21.1,99.5C1802.3,1165.4,1795.9,1169.5,1789.5,1168.2z"/>
	<path class="st4" d="M1750.9,1350.3l-752.8-159.5c-6.5-1.4-10.6-7.8-9.3-14.2l21.1-99.5c1.4-6.5,7.8-10.6,14.2-9.3l752.8,159.5
		c6.5,1.4,10.6,7.8,9.3,14.2l-21.1,99.5C1763.7,1347.5,1757.3,1351.7,1750.9,1350.3z"/>
	<path class="st4" d="M1712.3,1532.4l-752.8-159.5c-6.5-1.4-10.6-7.8-9.3-14.2l21.1-99.5c1.4-6.5,7.8-10.6,14.2-9.3l752.8,159.5
		c6.5,1.4,10.6,7.8,9.3,14.2l-21.1,99.5C1725.2,1529.6,1718.8,1533.8,1712.3,1532.4z"/>
	<path class="st4" d="M1673.7,1714.5l-752.8-159.5c-6.5-1.4-10.6-7.8-9.3-14.2l21.1-99.5c1.4-6.5,7.8-10.6,14.2-9.3l752.8,159.5
		c6.5,1.4,10.6,7.8,9.3,14.2l-21.1,99.5C1686.6,1711.7,1680.2,1715.9,1673.7,1714.5z"/>
	<path class="st1" d="M1584.4,294.6L1419,259.5c-6.5-1.4-10.6-7.8-9.3-14.2l11.9-56.2c1.4-6.5,7.8-10.6,14.2-9.3l165.5,35.1
		c6.5,1.4,10.6,7.8,9.3,14.2l-11.9,56.2C1597.3,291.8,1590.9,296,1584.4,294.6z"/>
	<path class="st4" d="M1029,816.8l-110.8-23.5c-6.5-1.4-10.6-7.8-9.3-14.2l21.1-99.5c1.4-6.5,7.8-10.6,14.2-9.3l110.8,23.5
		c6.5,1.4,10.6,7.8,9.3,14.2l-21.1,99.5C1041.8,814,1035.4,818.1,1029,816.8z"/>
	<path class="st4" d="M990.4,998.9l-110.8-23.5c-6.5-1.4-10.6-7.8-9.3-14.2l21.1-99.5c1.4-6.5,7.8-10.6,14.2-9.3l110.8,23.5
		c6.5,1.4,10.6,7.8,9.3,14.2l-21.1,99.5C1003.3,996.1,996.9,1000.3,990.4,998.9z"/>
	<path class="st4" d="M951.8,1181L841,1157.5c-6.5-1.4-10.6-7.8-9.3-14.2l21.1-99.5c1.4-6.5,7.8-10.6,14.2-9.3l110.8,23.5
		c6.5,1.4,10.6,7.8,9.3,14.2l-21.1,99.5C964.7,1178.2,958.3,1182.4,951.8,1181z"/>
	<path class="st4" d="M913.2,1363.1l-110.8-23.5c-6.5-1.4-10.6-7.8-9.3-14.2l21.1-99.5c1.4-6.5,7.8-10.6,14.2-9.3l110.8,23.5
		c6.5,1.4,10.6,7.8,9.3,14.2l-21.1,99.5C926.1,1360.3,919.7,1364.5,913.2,1363.1z"/>
	<path class="st4" d="M874.7,1545.3l-110.8-23.5c-6.5-1.4-10.6-7.8-9.3-14.2l21.1-99.5c1.4-6.5,7.8-10.6,14.2-9.3l110.8,23.5
		c6.5,1.4,10.6,7.8,9.3,14.2l-21.1,99.5C887.5,1542.5,881.1,1546.6,874.7,1545.3z"/>
	<path class="st5" d="M957.6,706.5c10.9,17.4,21.8,34.7,32.7,52.1c25.2-38.3,50.5-76.5,75.7-114.8"/>
	<path class="st5" d="M874.9,1074.3c10.9,17.4,21.8,34.7,32.7,52.1c25.2-38.3,50.5-76.5,75.7-114.8"/>
	<path class="st5" d="M834,1256c10.9,17.4,21.8,34.7,32.7,52.1c25.2-38.3,50.5-76.5,75.7-114.8"/>
	<g>
		
			<ellipse transform="matrix(0.2072 -0.9783 0.9783 0.2072 669.6478 1995.8978)" class="st3" cx="1566.3" cy="584.8" rx="39.4" ry="39.4"/>
		
			<ellipse transform="matrix(0.2072 -0.9783 0.9783 0.2072 528.1516 1715.5908)" class="st3" cx="1322.6" cy="531.9" rx="39.4" ry="39.4"/>
		
			<ellipse transform="matrix(0.2072 -0.9783 0.9783 0.2072 637.8802 1700.8722)" class="st3" cx="1368.4" cy="456.9" rx="32.8" ry="32.8"/>
		
			<ellipse transform="matrix(0.2072 -0.9783 0.9783 0.2072 720.2737 1749.8833)" class="st3" cx="1439.9" cy="430.5" rx="25.7" ry="25.7"/>
		
			<ellipse transform="matrix(0.2072 -0.9783 0.9783 0.2072 754.8007 1819.1274)" class="st3" cx="1499.8" cy="443.8" rx="19.1" ry="19.1"/>
		
			<ellipse transform="matrix(0.2072 -0.9783 0.9783 0.2072 756.0047 1880.9316)" class="st3" cx="1538.6" cy="474" rx="13.1" ry="13.1"/>
		
			<ellipse transform="matrix(0.2072 -0.9783 0.9783 0.2072 741.933 1924.3903)" class="st3" cx="1558.4" cy="504.4" rx="8.9" ry="8.9"/>
		
			<ellipse transform="matrix(0.2072 -0.9783 0.9783 0.2072 722.6924 1952.7756)" class="st3" cx="1566.2" cy="530.5" rx="6.6" ry="6.6"/>
		
			<ellipse transform="matrix(0.2072 -0.9783 0.9783 0.2072 559.2358 2009.2786)" class="st3" cx="1519.4" cy="659.6" rx="32.8" ry="32.8"/>
		
			<ellipse transform="matrix(0.2072 -0.9783 0.9783 0.2072 478.8636 1960.922)" class="st3" cx="1449.4" cy="685" rx="25.7" ry="25.7"/>
		
			<ellipse transform="matrix(0.2072 -0.9783 0.9783 0.2072 441.988 1892.0339)" class="st3" cx="1388.4" cy="673.3" rx="19.7" ry="19.7"/>
		
			<ellipse transform="matrix(0.2072 -0.9783 0.9783 0.2072 441.4674 1831.5676)" class="st3" cx="1350.8" cy="643.4" rx="13.7" ry="13.7"/>
		
			<ellipse transform="matrix(0.2072 -0.9783 0.9783 0.2072 454.1723 1785.4332)" class="st3" cx="1328.7" cy="612.5" rx="9.5" ry="9.5"/>
		
			<ellipse transform="matrix(0.2072 -0.9783 0.9783 0.2072 474.4236 1757.3751)" class="st3" cx="1321.5" cy="586" rx="6.6" ry="6.6"/>
	</g>
</g>
<circle class="st6" cx="363" cy="373" r="132"/>
<circle class="st7" cx="591.5" cy="189.5" r="70.5"/>
<circle class="st8" cx="2250.5" cy="1678.5" r="70.5"/>
</svg>
