<?xml version="1.0" encoding="utf-8"?>
<!-- Generator: Adobe Illustrator 21.1.0, SVG Export Plug-In . SVG Version: 6.00 Build 0)  -->
<svg version="1.1" id="Layer_1" xmlns="http://www.w3.org/2000/svg" xmlns:xlink="http://www.w3.org/1999/xlink" x="0px" y="0px"
	 viewBox="0 0 2705 2000" style="enable-background:new 0 0 2705 2000;" xml:space="preserve">
<style type="text/css">
	.st0{clip-path:url(#SVGID_2_);}
	.st1{fill:#434470;}
	.st2{fill:#83296B;}
	.st3{fill:#FCD069;}
	.st4{fill:#C4C5D6;}
	.st5{fill:#FFFFFF;}
	.st6{opacity:0.5;fill:#FCD069;}
	.st7{opacity:0.5;fill:#83296B;}
	.st8{opacity:0.5;fill:#434470;}
</style>
<g>
	<defs>
		<circle id="SVGID_1_" cx="1352.5" cy="1000" r="980.5"/>
	</defs>
	<clipPath id="SVGID_2_">
		<use xlink:href="#SVGID_1_"  style="overflow:visible;"/>
	</clipPath>
	<g class="st0">
		<rect x="138" y="-210" class="st1" width="1212.3" height="1212.3"/>
		<rect x="1349.2" y="-210" class="st2" width="1211.1" height="1211.1"/>
		<rect x="142.5" y="1002.2" class="st3" width="1207.8" height="1207.8"/>
		<rect x="1350.3" y="1002.2" class="st4" width="1207.8" height="1207.8"/>
		<g>
			<circle class="st4" cx="1955.4" cy="854.2" r="108.2"/>
			<path class="st4" d="M1863.9,1022.3c12.2-52.2,24.4-104.3,36.6-156.5c35.5,0,71,0,106.5,0c13.3,52.2,26.6,104.3,40,156.5
				C1985.9,1022.3,1924.9,1022.3,1863.9,1022.3z"/>
		</g>
		<g>
			<circle class="st3" cx="1512.9" cy="1606.1" r="108.2"/>
			<path class="st3" d="M1344.8,1514.6c52.2,12.2,104.3,24.4,156.5,36.6c0,35.5,0,71,0,106.5c-52.2,13.3-104.3,26.6-156.5,40
				C1344.8,1636.6,1344.8,1575.6,1344.8,1514.6z"/>
		</g>
		<g>
			<circle class="st2" cx="1183.4" cy="396.1" r="108.2"/>
			<path class="st2" d="M1351.5,487.7c-52.2-12.2-104.3-24.4-156.5-36.6c0-35.5,0-71,0-106.5c52.2-13.3,104.3-26.6,156.5-40
				C1351.5,365.6,1351.5,426.6,1351.5,487.7z"/>
		</g>
		<g>
			<circle class="st1" cx="745.4" cy="1141.4" r="108.2"/>
			<path class="st1" d="M836.9,973.3c-12.2,52.2-24.4,104.3-36.6,156.5c-35.5,0-71,0-106.5,0c-13.3-52.2-26.6-104.3-40-156.5
				C714.9,973.3,775.9,973.3,836.9,973.3z"/>
		</g>
		<path class="st5" d="M1361.4,1312H1328c-39.4,0-71.3-31.9-71.3-71.3V763.8c0-39.4,31.9-71.3,71.3-71.3h33.4
			c39.4,0,71.3,31.9,71.3,71.3v476.9C1432.7,1280,1400.8,1312,1361.4,1312z"/>
		<path class="st5" d="M1036.1,1020.2v-33.6c0-39.3,31.9-71.2,71.2-71.2h473.9c41.1,0,74.4,33.3,74.4,74.4v30.4
			c0,39.3-31.9,71.2-71.2,71.2h-477.1C1067.9,1091.4,1036.1,1059.5,1036.1,1020.2z"/>
	</g>
</g>
<circle class="st6" cx="214" cy="420" r="132"/>
<circle class="st7" cx="442.5" cy="236.5" r="70.5"/>
<circle class="st8" cx="2333.5" cy="1756.5" r="70.5"/>
</svg>
