<?xml version="1.0" encoding="utf-8"?>
<!-- Generator: Adobe Illustrator 25.2.3, SVG Export Plug-In . SVG Version: 6.00 Build 0)  -->
<svg version="1.1" id="Layer_1" xmlns="http://www.w3.org/2000/svg" xmlns:xlink="http://www.w3.org/1999/xlink" x="0px" y="0px"
	 viewBox="0 0 1000 1000" style="enable-background:new 0 0 1000 1000;" xml:space="preserve">
<style type="text/css">
	.st0{opacity:0.5;fill:#FCD069;enable-background:new    ;}
	.st1{opacity:0.5;fill:#83296B;enable-background:new    ;}
	.st2{opacity:0.5;fill:#434470;enable-background:new    ;}
	.st3{clip-path:url(#SVGID_2_);fill:#8F4279;}
	.st4{clip-path:url(#SVGID_2_);fill:#FCD47F;}
	.st5{clip-path:url(#SVGID_4_);fill:#CACBDA;}
	.st6{clip-path:url(#SVGID_4_);fill:#56587E;}
	.st7{clip-path:url(#SVGID_6_);fill:#CACBDA;}
	.st8{clip-path:url(#SVGID_6_);fill:#56587E;}
</style>
<circle class="st0" cx="331.59" cy="280.59" r="35.16"/>
<circle class="st1" cx="799.92" cy="571.05" r="49.08"/>
<circle class="st2" cx="278.7" cy="785.33" r="52.83"/>
<circle class="st0" cx="386.66" cy="746.47" r="35.16"/>
<g>
	<defs>
		<path id="SVGID_1_" d="M548.22,578.39L548.22,578.39c-60.1-18.57-93.76-82.34-75.18-142.44l65.32-211.37
			c18.57-60.09,82.34-93.76,142.44-75.18l0,0c60.09,18.57,93.76,82.34,75.18,142.44l-65.32,211.37
			C672.09,563.3,608.32,596.96,548.22,578.39z"/>
	</defs>
	<clipPath id="SVGID_2_">
		<use xlink:href="#SVGID_1_"  style="overflow:visible;"/>
	</clipPath>
	
		<rect x="461.71" y="359.27" transform="matrix(0.2953 -0.9554 0.9554 0.2953 -47.3984 889.9124)" class="st3" width="235.63" height="235.63"/>
	
		<rect x="531.29" y="134.14" transform="matrix(0.2953 -0.9554 0.9554 0.2953 216.7225 797.7273)" class="st4" width="235.63" height="235.63"/>
</g>
<g>
	<defs>
		<circle id="SVGID_3_" cx="643.27" cy="746.89" r="108.11"/>
	</defs>
	<clipPath id="SVGID_4_">
		<use xlink:href="#SVGID_3_"  style="overflow:visible;"/>
	</clipPath>
	<circle class="st5" cx="643.27" cy="746.89" r="108.11"/>
	
		<rect x="621.73" y="576.76" transform="matrix(-0.6132 0.7899 -0.7899 -0.6132 1671.8346 576.1541)" class="st6" width="146.25" height="241.3"/>
</g>
<g>
	<defs>
		<circle id="SVGID_5_" cx="278.31" cy="495.82" r="108.11"/>
	</defs>
	<clipPath id="SVGID_6_">
		<use xlink:href="#SVGID_5_"  style="overflow:visible;"/>
	</clipPath>
	<circle class="st7" cx="278.31" cy="495.82" r="108.11"/>
	
		<rect x="194.78" y="445.88" transform="matrix(-3.193933e-07 -1 1 -3.193933e-07 -298.6258 834.4365)" class="st8" width="146.25" height="241.3"/>
</g>
</svg>
