<?xml version="1.0" encoding="utf-8"?>
<!-- Generator: Adobe Illustrator 21.1.0, SVG Export Plug-In . SVG Version: 6.00 Build 0)  -->
<svg version="1.1" id="Layer_1" xmlns="http://www.w3.org/2000/svg" xmlns:xlink="http://www.w3.org/1999/xlink" x="0px" y="0px"
	 viewBox="0 0 2000 2000" style="enable-background:new 0 0 2000 2000;" xml:space="preserve">
<style type="text/css">
	.st0{opacity:0.8;fill:#434470;enable-background:new    ;}
	.st1{opacity:0.9;}
	.st2{fill:#83296B;}
	.st3{fill:#FCD069;}
	.st4{fill:#C4C5D6;}
	.st5{fill:#434470;enable-background:new    ;}
</style>
<g>
	<circle class="st0" cx="1000" cy="1000" r="884"/>
	<g>
		<g class="st1">
			<path class="st2" d="M1385.9,636.2h-371.4c-36.2,0-65.6-29.3-65.6-65.6V349.1c0-36.2,29.3-65.6,65.6-65.6h371.4
				c36.2,0,65.6,29.3,65.6,65.6v221.6C1451.4,606.8,1422.1,636.2,1385.9,636.2z"/>
			<path class="st2" d="M1022,631.4c0,32.2,0,64.5,0,96.7c35.4-32.9,70.8-65.7,106.2-98.6C1092.8,630.2,1057.4,630.8,1022,631.4z"/>
			<path class="st3" d="M1210.9,585.4h-21.4c-13.8,0-25-11.2-25-25V359.1c0-13.8,11.2-25,25-25h21.4c13.8,0,25,11.2,25,25v201.3
				C1235.9,574.2,1224.7,585.4,1210.9,585.4z"/>
			<path class="st3" d="M1075,472.1v-23.9c0-13.1,10.6-23.7,23.7-23.7h203.9c13.1,0,23.7,10.6,23.7,23.7v23.9
				c0,13.1-10.6,23.7-23.7,23.7h-203.9C1085.6,495.9,1075,485.3,1075,472.1z"/>
		</g>
		<g>
			<path class="st3" d="M1073,1302.3c-46.8,36.7-187.9,137.5-391.8,139.5c-211.7,2.1-358.4-103.4-404.5-139.5
				c0-232.8,179.7-424.3,398.2-424.3S1073,1069.6,1073,1302.3z"/>
			<circle class="st2" cx="674.4" cy="717.1" r="255.5"/>
		</g>
		<g>
			<path class="st4" d="M1513.3,1588.9c-46.8,36.7-187.9,137.5-391.8,139.5c-211.7,2.1-358.4-103.4-404.5-139.5
				c0-232.8,179.7-424.3,398.2-424.3S1513.3,1356.2,1513.3,1588.9z"/>
			<circle class="st5" cx="1114.7" cy="1003.7" r="255.5"/>
		</g>
	</g>
</g>
</svg>
