<?xml version="1.0" encoding="utf-8"?>
<!-- Generator: Adobe Illustrator 25.2.3, SVG Export Plug-In . SVG Version: 6.00 Build 0)  -->
<svg version="1.1" id="Layer_1" xmlns="http://www.w3.org/2000/svg" xmlns:xlink="http://www.w3.org/1999/xlink" x="0px" y="0px"
	 viewBox="0 0 1000 1000" style="enable-background:new 0 0 1000 1000;" xml:space="preserve">
<style type="text/css">
	.st0{opacity:0.9;}
	.st1{clip-path:url(#SVGID_2_);}
	.st2{fill:#434470;}
	.st3{fill:#FCD069;}
	.st4{fill:#83296B;}
	.st5{fill:#C4C5D6;}
	.st6{opacity:0.5;fill:#FCD069;enable-background:new    ;}
	.st7{opacity:0.5;fill:#83296B;enable-background:new    ;}
	.st8{opacity:0.5;fill:#434470;enable-background:new    ;}
</style>
<g class="st0">
	<g>
		<defs>
			<polygon id="SVGID_1_" points="60,883 164.18,540.07 812.85,540.07 917.04,883 			"/>
		</defs>
		<clipPath id="SVGID_2_">
			<use xlink:href="#SVGID_1_"  style="overflow:visible;"/>
		</clipPath>
		<g class="st1">
			
				<rect x="400.85" y="367.78" transform="matrix(0.9423 -0.3348 0.3348 0.9423 -137.6216 238.8872)" class="st2" width="446.73" height="301.83"/>
			
				<rect x="-20.1" y="517.32" transform="matrix(0.9423 -0.3348 0.3348 0.9423 -211.9707 106.5978)" class="st3" width="446.73" height="301.83"/>
			
				<rect x="84.46" y="822.19" transform="matrix(0.9423 -0.3348 0.3348 0.9423 -311.5206 138.7365)" class="st4" width="324.52" height="301.83"/>
			
				<rect x="383.04" y="672.67" transform="matrix(0.9423 -0.3348 0.3348 0.9423 -237.1853 271.0013)" class="st5" width="569.1" height="301.83"/>
		</g>
	</g>
	<g>
		<path class="st5" d="M514.53,634.31h-13.59c-6.46,0-11.7-5.24-11.7-11.7V396.36c0-6.46,5.24-11.7,11.7-11.7h13.59
			c6.46,0,11.7,5.24,11.7,11.7v226.25C526.23,629.07,520.99,634.31,514.53,634.31z"/>
		<circle class="st4" cx="508.32" cy="326.29" r="95.35"/>
	</g>
</g>
<circle class="st6" cx="875.7" cy="426.39" r="64.3"/>
<circle class="st7" cx="181.16" cy="326.04" r="21"/>
<circle class="st8" cx="118.7" cy="384.8" r="41.72"/>
<circle class="st8" cx="645.62" cy="158.28" r="41.72"/>
</svg>
