<?xml version="1.0" encoding="utf-8"?>
<!-- Generator: Adobe Illustrator 21.1.0, SVG Export Plug-In . SVG Version: 6.00 Build 0)  -->
<svg version="1.1" id="Layer_1" xmlns="http://www.w3.org/2000/svg" xmlns:xlink="http://www.w3.org/1999/xlink" x="0px" y="0px"
	 viewBox="0 0 50 50" style="enable-background:new 0 0 50 50;" xml:space="preserve">
<style type="text/css">
	.st0{fill:#CDA0BE;}
	.st1{fill:#E9D7E2;}
</style>
<g>
	<g>
		<path class="st0" d="M40.7,49H9.3c-2.1,0-3.8-1.7-3.8-3.8V4.8C5.5,2.7,7.2,1,9.3,1h31.5c2.1,0,3.8,1.7,3.8,3.8v40.5
			C44.5,47.3,42.8,49,40.7,49z"/>
	</g>
	<path class="st1" d="M38,25H12c-1.9,0-3.5-1.6-3.5-3.5v0c0-1.9,1.6-3.5,3.5-3.5h26c1.9,0,3.5,1.6,3.5,3.5v0
		C41.5,23.4,39.9,25,38,25z"/>
	<path class="st1" d="M38,35H12c-1.9,0-3.5-1.6-3.5-3.5v0c0-1.9,1.6-3.5,3.5-3.5h26c1.9,0,3.5,1.6,3.5,3.5v0
		C41.5,33.4,39.9,35,38,35z"/>
	<path class="st1" d="M38,45H12c-1.9,0-3.5-1.6-3.5-3.5v0c0-1.9,1.6-3.5,3.5-3.5h26c1.9,0,3.5,1.6,3.5,3.5v0
		C41.5,43.4,39.9,45,38,45z"/>
</g>
</svg>
