<?xml version="1.0" encoding="utf-8"?>
<!-- Generator: Adobe Illustrator 25.2.3, SVG Export Plug-In . SVG Version: 6.00 Build 0)  -->
<svg version="1.1" id="Layer_1" xmlns="http://www.w3.org/2000/svg" xmlns:xlink="http://www.w3.org/1999/xlink" x="0px" y="0px"
	 viewBox="0 0 1000 1000" style="enable-background:new 0 0 1000 1000;" xml:space="preserve">
<style type="text/css">
	.st0{opacity:0.5;fill:#FCD069;enable-background:new    ;}
	.st1{opacity:0.5;fill:#83296B;enable-background:new    ;}
	.st2{opacity:0.5;fill:#434470;enable-background:new    ;}
	.st3{fill:#CACBDA;}
	.st4{fill:#FCD47F;}
	.st5{fill:#8F4279;}
	.st6{fill:#56587E;}
</style>
<circle class="st0" cx="867.42" cy="664.06" r="40.67"/>
<circle class="st1" cx="99.77" cy="679.63" r="56.77"/>
<circle class="st2" cx="650.09" cy="841.88" r="61.1"/>
<circle class="st0" cx="341.21" cy="255.62" r="40.67"/>
<g>
	<path class="st3" d="M887.88,421.48l-20.63,18.25c-5.07,4.49-12.84,4.01-17.32-1.06l-3.83-4.33c-0.13,0.14-0.28,0.27-0.42,0.4
		L427.87,804.31c-12.26,10.84-30.98,9.7-41.83-2.56l-17.53-19.82l-19.4,17.16c-12.91,11.42-32.63,10.21-44.05-2.7l-15.83-17.89
		L167.31,886.34c-1.35,1.19-3.05,1.72-4.71,1.63c-1.66-0.11-3.28-0.84-4.48-2.19c-2.38-2.69-2.13-6.81,0.56-9.19l121.93-107.85
		l-20.48-23.15c-11.42-12.91-10.21-32.63,2.7-44.05l19.4-17.16l-18.2-20.57c-10.84-12.26-9.7-30.98,2.56-41.83L684.4,252.41
		c0.14-0.13,0.29-0.26,0.45-0.37l-6.48-7.33c-4.49-5.07-4.01-12.84,1.06-17.32l20.63-18.25c5.07-4.49,12.84-4.01,17.32,1.06
		l60.23,68.09l47.27-41.81l-29.04-32.83c-3.76-4.25-3.36-10.72,0.89-14.48l14.65-12.96c4.25-3.76,10.72-3.36,14.48,0.89
		L937.7,303.54c3.76,4.25,3.36,10.72-0.89,14.48l-14.65,12.96c-4.25,3.76-10.72,3.36-14.48-0.89l-29.71-33.58l-47.27,41.81
		l58.24,65.84C893.43,409.23,892.96,416.99,887.88,421.48z"/>
	<path class="st4" d="M398.36,782.41L285.4,654.7c-6.93-7.83-6.19-19.79,1.64-26.72l95.44-84.43c7.83-6.93,19.79-6.19,26.72,1.64
		L522.16,672.9c6.93,7.83,6.19,19.79-1.64,26.72l-95.44,84.43C417.25,790.97,405.29,790.24,398.36,782.41z"/>
	<path class="st5" d="M661.01,362.67l-42.44-47.98c-1.84-2.08-1.65-5.27,0.44-7.11l14.21-12.57c2.08-1.84,5.27-1.65,7.11,0.44
		l42.44,47.98c1.84,2.08,1.65,5.27-0.44,7.11l-14.21,12.57C666.03,364.95,662.85,364.76,661.01,362.67z"/>
	<path class="st5" d="M616.74,401.83l-42.44-47.98c-1.84-2.08-1.65-5.27,0.44-7.11l14.21-12.57c2.08-1.84,5.27-1.65,7.11,0.44
		l42.44,47.98c1.84,2.08,1.65,5.27-0.44,7.11l-14.21,12.57C621.76,404.11,618.58,403.91,616.74,401.83z"/>
	<path class="st5" d="M572.47,440.99l-42.44-47.98c-1.84-2.08-1.65-5.27,0.44-7.11l14.21-12.57c2.08-1.84,5.27-1.65,7.11,0.44
		l42.44,47.98c1.84,2.08,1.65,5.27-0.44,7.11l-14.21,12.57C577.49,443.27,574.31,443.07,572.47,440.99z"/>
	<path class="st6" d="M843.22,438.64L677.57,251.37c-6.12-6.92-5.48-17.5,1.45-23.62l20.7-18.31c6.92-6.12,17.5-5.48,23.62,1.45
		l165.65,187.27c6.12,6.92,5.48,17.5-1.45,23.62l-20.7,18.31C859.92,446.21,849.34,445.56,843.22,438.64z"/>
	<path class="st4" d="M318.58,781.41l-41.94-47.41c-6.75-7.63-6.03-19.28,1.59-26.03l58.66-51.89c7.63-6.75,19.28-6.03,26.03,1.59
		l41.94,47.41c6.75,7.63,6.03,19.28-1.59,26.03l-58.66,51.89C336.98,789.76,325.32,789.04,318.58,781.41z"/>
	<path class="st6" d="M900.65,335.74L788.04,208.43c-6.47-7.32-5.79-18.5,1.53-24.98l10.26-9.08c7.32-6.47,18.5-5.79,24.98,1.53
		l112.61,127.31c6.47,7.32,5.79,18.5-1.53,24.98l-10.26,9.08C918.31,343.75,907.12,343.06,900.65,335.74z"/>
</g>
<circle class="st1" cx="431.81" cy="296.44" r="28.36"/>
<circle class="st2" cx="431.9" cy="151.95" r="30.56"/>
</svg>
