<?xml version="1.0" encoding="utf-8"?>
<!-- Generator: Adobe Illustrator 25.2.3, SVG Export Plug-In . SVG Version: 6.00 Build 0)  -->
<svg version="1.1" id="Layer_1" xmlns="http://www.w3.org/2000/svg" xmlns:xlink="http://www.w3.org/1999/xlink" x="0px" y="0px"
	 viewBox="0 0 1000 1000" style="enable-background:new 0 0 1000 1000;" xml:space="preserve">
<style type="text/css">
	.st0{fill:#FCD47F;}
	.st1{fill:#8F4279;}
	.st2{fill:#56587E;}
	.st3{fill:#CACBDA;}
	.st4{opacity:0.5;fill:#FCD069;enable-background:new    ;}
	.st5{opacity:0.5;fill:#83296B;enable-background:new    ;}
	.st6{opacity:0.5;fill:#434470;enable-background:new    ;}
</style>
<g>
	<path class="st0" d="M912.87,274.39l-45.94,196.74l-78.28-18.28c-2.75,9.28-7.78,18.01-15.11,25.34
		c-23.48,23.48-61.56,23.48-85.04,0c-14.33-14.33-19.91-34.09-16.76-52.64l-77.32-18.05l18.08-77.43
		c-10.45-2.48-20.37-7.81-28.51-15.95c-23.48-23.48-23.48-61.55,0-85.03c15.15-15.15,36.39-20.53,55.85-16.11l18.2-77.97
		l196.74,45.94C896.64,190.71,922.63,232.55,912.87,274.39z"/>
</g>
<g>
	<g>
		<path class="st1" d="M556.27,443.55c0,38.61-31.15,69.94-69.68,70.23v69.68H206.76V381.42c0-42.97,34.84-77.8,77.8-77.8h202.03
			v69.68C525.13,373.6,556.27,404.93,556.27,443.55z"/>
	</g>
	<g>
		<path class="st2" d="M486.59,583.45v279.83H284.56c-42.96,0-77.8-34.83-77.8-77.8V583.45h78.69c0.14-15.19,6-30.36,17.59-41.95
			c23.48-23.48,61.55-23.48,85.03,0c11.59,11.59,17.46,26.75,17.59,41.95H486.59z"/>
	</g>
	<g>
		<path class="st3" d="M766.42,583.45v202.03c0,42.97-34.83,77.8-77.79,77.8H486.59v-79.79c-15.57,0.15-31.19-5.73-43.07-17.6
			c-23.48-23.48-23.48-61.56,0-85.04c11.88-11.88,27.5-17.75,43.07-17.59v-79.8h79.81c0.14-15.19,6-30.36,17.59-41.95
			c23.48-23.48,61.55-23.48,85.03,0c11.59,11.59,17.46,26.75,17.59,41.95H766.42z"/>
	</g>
</g>
<circle class="st4" cx="143.01" cy="884.65" r="30.77"/>
<circle class="st5" cx="875.11" cy="719.2" r="75.17"/>
<circle class="st6" cx="218.72" cy="234.39" r="46.23"/>
<circle class="st4" cx="143.21" cy="311.39" r="30.77"/>
</svg>
