<?xml version="1.0" encoding="utf-8"?>
<!-- Generator: Adobe Illustrator 25.2.3, SVG Export Plug-In . SVG Version: 6.00 Build 0)  -->
<svg version="1.1" id="Layer_1" xmlns="http://www.w3.org/2000/svg" xmlns:xlink="http://www.w3.org/1999/xlink" x="0px" y="0px"
	 viewBox="0 0 1000 1000" style="enable-background:new 0 0 1000 1000;" xml:space="preserve">
<style type="text/css">
	.st0{opacity:0.5;fill:#83296B;enable-background:new    ;}
	.st1{opacity:0.5;fill:#FCD069;enable-background:new    ;}
	.st2{opacity:0.5;fill:#434470;enable-background:new    ;}
	.st3{fill:#56587E;}
	.st4{fill:#FFFFFF;}
	.st5{fill:#8F4279;}
</style>
<circle class="st0" cx="140.6" cy="751.7" r="34.76"/>
<circle class="st1" cx="154.27" cy="316.24" r="84.93"/>
<circle class="st2" cx="878.75" cy="232.04" r="52.23"/>
<circle class="st0" cx="776.18" cy="153.6" r="34.76"/>
<g>
	<circle class="st3" cx="337.48" cy="392.64" r="76.12"/>
	<g>
		<g>
			<path class="st3" d="M477.96,535.48l1.58,168.07l-66.87,0.63c-0.4,8.04-2.75,16.09-7.23,23.45
				c-14.36,23.6-45.14,31.09-68.74,16.73c-14.4-8.76-22.8-23.64-23.91-39.26l-66.05,0.62l-0.62-66.15c-8.94,0.05-18-2.3-26.19-7.28
				c-23.6-14.36-31.09-45.13-16.73-68.73c9.27-15.23,25.38-23.75,41.98-24.01l-0.63-66.61l168.07-1.58
				C448.38,471.04,477.62,499.74,477.96,535.48z"/>
		</g>
		<circle class="st4" cx="499.45" cy="593.51" r="85.86"/>
	</g>
</g>
<g>
	<g>
		<path class="st5" d="M834.56,519.17l2.14,228.23l-90.81,0.85c-0.54,10.92-3.73,21.85-9.82,31.85
			c-19.5,32.05-61.3,42.22-93.34,22.72c-19.56-11.9-30.96-32.1-32.46-53.31l-89.69,0.84l-0.84-89.83
			c-12.13,0.06-24.44-3.13-35.56-9.89c-32.05-19.5-42.22-61.29-22.72-93.33c12.58-20.68,34.46-32.25,57-32.61l-0.85-90.45
			l228.23-2.14C794.39,431.66,834.1,470.63,834.56,519.17z"/>
	</g>
	<circle class="st5" cx="668.34" cy="325.2" r="103.37"/>
</g>
<circle class="st1" cx="878.5" cy="847.23" r="34.76"/>
<circle class="st1" cx="475.19" cy="325.3" r="34.76"/>
</svg>
