<?xml version="1.0" encoding="utf-8"?>
<!-- Generator: Adobe Illustrator 21.1.0, SVG Export Plug-In . SVG Version: 6.00 Build 0)  -->
<svg version="1.1" id="Layer_1" xmlns="http://www.w3.org/2000/svg" xmlns:xlink="http://www.w3.org/1999/xlink" x="0px" y="0px"
	 viewBox="0 0 2000 1246" style="enable-background:new 0 0 2000 1246;" xml:space="preserve">
<style type="text/css">
	.st0{fill:#DDDCE4;}
	.st1{opacity:0.8;}
	.st2{fill:#F7F7F8;}
</style>
<g>
	<g>
		<path class="st0" d="M866.1,893.7c-49.8,37.4-199.3,143.3-413.2,145.4c-224.3,2.1-377.9-108-427.8-145.4
			c0-240.9,189-440.2,421.5-440.2S866.1,652.8,866.1,893.7z"/>
		<ellipse class="st0" cx="444.6" cy="287.3" rx="270" ry="265.8"/>
	</g>
	<g>
		<path class="st0" d="M1974.9,893.7c-49.8,37.4-199.3,143.3-413.2,145.4c-224.3,2.1-377.9-108-427.8-145.4
			c0-240.9,189-440.2,421.5-440.2S1974.9,652.8,1974.9,893.7z"/>
		<ellipse class="st0" cx="1553.3" cy="287.3" rx="270" ry="265.8"/>
	</g>
	<g class="st1">
		<path class="st2" d="M1420.5,1079.1c-49.8,37.4-199.3,143.3-413.2,145.4c-224.3,2.1-377.9-108-427.8-145.4
			c0-240.9,189-440.2,421.5-440.2S1420.5,838.2,1420.5,1079.1z"/>
		<ellipse class="st2" cx="999" cy="472.7" rx="270" ry="265.8"/>
	</g>
</g>
</svg>
