<?xml version="1.0" encoding="utf-8"?>
<!-- Generator: Adobe Illustrator 21.1.0, SVG Export Plug-In . SVG Version: 6.00 Build 0)  -->
<svg version="1.1" id="Layer_1" xmlns="http://www.w3.org/2000/svg" xmlns:xlink="http://www.w3.org/1999/xlink" x="0px" y="0px"
	 viewBox="0 0 2000 2000" style="enable-background:new 0 0 2000 2000;" xml:space="preserve">
<style type="text/css">
	.st0{fill:#434470;}
	.st1{opacity:0.2;}
	.st2{fill:#FFFFFF;}
	.st3{opacity:0.8;}
</style>
<rect class="st0" width="2000" height="2000"/>
<g>
	<g class="st1">
		<path class="st2" d="M866.1,1270.7c-49.8,37.4-199.3,143.3-413.2,145.4c-224.3,2.1-377.9-108-427.8-145.4
			c0-240.9,189-440.2,421.5-440.2S866.1,1029.8,866.1,1270.7z"/>
		<ellipse class="st2" cx="444.6" cy="664.3" rx="270" ry="265.8"/>
	</g>
	<g class="st1">
		<path class="st2" d="M1974.9,1270.7c-49.8,37.4-199.3,143.3-413.2,145.4c-224.3,2.1-377.9-108-427.8-145.4
			c0-240.9,189-440.2,421.5-440.2S1974.9,1029.8,1974.9,1270.7z"/>
		<ellipse class="st2" cx="1553.3" cy="664.3" rx="270" ry="265.8"/>
	</g>
	<g class="st3">
		<path class="st2" d="M1420.5,1456.1c-49.8,37.4-199.3,143.3-413.2,145.4c-224.3,2.1-377.9-108-427.8-145.4
			c0-240.9,189-440.2,421.5-440.2S1420.5,1215.2,1420.5,1456.1z"/>
		<ellipse class="st2" cx="999" cy="849.7" rx="270" ry="265.8"/>
	</g>
</g>
</svg>
