<?xml version="1.0" encoding="utf-8"?>
<!-- Generator: Adobe Illustrator 25.2.3, SVG Export Plug-In . SVG Version: 6.00 Build 0)  -->
<svg version="1.1" id="Layer_1" xmlns="http://www.w3.org/2000/svg" xmlns:xlink="http://www.w3.org/1999/xlink" x="0px" y="0px"
	 viewBox="0 0 1000 1000" style="enable-background:new 0 0 1000 1000;" xml:space="preserve">
<style type="text/css">
	.st0{fill:#FCD47F;}
	.st1{fill:#56587E;}
	.st2{fill:#8F4279;}
	.st3{opacity:0.5;fill:#434470;enable-background:new    ;}
	.st4{opacity:0.5;fill:#83296B;enable-background:new    ;}
	.st5{opacity:0.5;fill:#FCD069;enable-background:new    ;}
</style>
<g>
	<path class="st0" d="M490.05,659.1c-22.08,17.34-88.63,64.86-184.85,65.83c-99.88,1-169.1-48.77-190.84-65.83
		c0-109.82,84.79-200.17,187.85-200.17S490.05,549.31,490.05,659.1z"/>
	<circle class="st0" cx="302" cy="383.03" r="120.53"/>
</g>
<g>
	<path class="st1" d="M892.61,659.13c-22.08,17.34-88.63,64.86-184.85,65.83c-99.88,1-169.1-48.77-190.84-65.83
		c0-109.82,84.79-200.17,187.85-200.17S892.61,549.34,892.61,659.13z"/>
	<circle class="st1" cx="704.56" cy="383.06" r="120.53"/>
</g>
<g>
	<path class="st2" d="M678.02,817.3c-22.08,17.34-88.63,64.86-184.85,65.83c-99.88,1-169.1-48.77-190.84-65.83
		c0-109.82,84.79-200.17,187.85-200.17S678.02,707.51,678.02,817.3z"/>
	<circle class="st2" cx="489.96" cy="541.23" r="120.53"/>
</g>
<circle class="st3" cx="490.38" cy="182.61" r="65.18"/>
<circle class="st4" cx="409.79" cy="235.49" r="40.14"/>
<circle class="st4" cx="98.97" cy="490.24" r="37.09"/>
<circle class="st3" cx="893" cy="775.69" r="35.6"/>
<circle class="st5" cx="904.58" cy="458.89" r="33.42"/>
</svg>
