<?xml version="1.0" encoding="utf-8"?>
<!-- Generator: Adobe Illustrator 25.2.3, SVG Export Plug-In . SVG Version: 6.00 Build 0)  -->
<svg version="1.1" id="Layer_1" xmlns="http://www.w3.org/2000/svg" xmlns:xlink="http://www.w3.org/1999/xlink" x="0px" y="0px"
	 viewBox="0 0 1000 1000" style="enable-background:new 0 0 1000 1000;" xml:space="preserve">
<style type="text/css">
	.st0{opacity:0.5;fill:#FCD069;enable-background:new    ;}
	.st1{opacity:0.5;fill:#83296B;enable-background:new    ;}
	.st2{opacity:0.5;fill:#434470;enable-background:new    ;}
	.st3{fill:#FCD47F;}
	.st4{clip-path:url(#SVGID_2_);fill:#56587E;}
	.st5{clip-path:url(#SVGID_2_);fill:#CACBDA;}
	.st6{fill:#8F4279;}
	.st7{clip-path:url(#SVGID_4_);fill:#56587E;}
	.st8{clip-path:url(#SVGID_4_);fill:#CACBDA;}
</style>
<circle class="st0" cx="97.06" cy="772.87" r="36.1"/>
<circle class="st1" cx="491.1" cy="184.46" r="82.12"/>
<circle class="st2" cx="904.53" cy="556.85" r="53.07"/>
<circle class="st0" cx="399.4" cy="421.45" r="52.18"/>
<circle class="st1" cx="96.53" cy="390.81" r="41.53"/>
<g>
	<g>
		<path class="st3" d="M241.83,816.72c-9.46,4.5-20.82,0.35-25.05-9.24c-39.76-89.94-54.04-176.23-42.46-256.73
			c4.81-33.47,13.29-61.94,22.27-92.07c13.36-44.86,27.18-91.25,29.55-159.65c1.1-31.77-0.42-63.82-4.54-95.52
			c-1.3-10,5.56-19.22,15.52-20.82l10.89-1.76c10.39-1.68,20.12,5.57,21.48,16.01c4.49,34.42,6.15,69.24,4.96,103.77
			c-2.59,74.59-17.97,126.22-31.54,171.78c-8.46,28.39-16.44,55.2-20.75,85.15c-10.25,71.3,2.77,148.62,38.72,230.05
			c4.06,9.2,0,19.97-9.08,24.3L241.83,816.72z"/>
	</g>
	<g>
		<defs>
			<ellipse id="SVGID_1_" cx="346.96" cy="677.51" rx="114.64" ry="158.64"/>
		</defs>
		<clipPath id="SVGID_2_">
			<use xlink:href="#SVGID_1_"  style="overflow:visible;"/>
		</clipPath>
		<ellipse class="st4" cx="438.06" cy="679.37" rx="205.74" ry="303.03"/>
		<ellipse class="st5" cx="578.72" cy="690.53" rx="279.48" ry="377.39"/>
	</g>
	<path class="st6" d="M323.43,845.84c-5.21,8.67-16.74,11-24.88,5.01c-27.62-20.3-74.04-63.83-88.75-134.73
		c-9.88-47.61-2.8-97.21,20.46-143.42c10.28-20.43,21.74-36.4,30.36-47c6.46-7.95,18.36-8.57,25.57-1.3l2.89,2.92
		c6.18,6.24,6.64,16.11,1.13,22.94c-19.43,24.08-58.27,83.41-42.78,158.07c12.13,58.47,50.61,94.52,73.54,111.36
		c7.16,5.26,9.14,15.09,4.56,22.7L323.43,845.84z"/>
</g>
<g>
	<g>
		<path class="st3" d="M760.77,820.54c9.46,4.5,20.82,0.35,25.05-9.24c39.76-89.94,54.04-176.23,42.46-256.73
			c-4.81-33.47-13.29-61.94-22.27-92.07c-13.36-44.86-27.18-91.25-29.55-159.65c-1.1-31.77,0.42-63.82,4.54-95.52
			c1.3-10-5.56-19.22-15.52-20.82l-10.89-1.76c-10.39-1.68-20.12,5.57-21.48,16.01c-4.49,34.42-6.15,69.24-4.96,103.77
			c2.59,74.59,17.97,126.22,31.54,171.78c8.46,28.39,16.44,55.2,20.75,85.15c10.25,71.3-2.77,148.62-38.72,230.05
			c-4.06,9.2,0,19.97,9.08,24.3L760.77,820.54z"/>
	</g>
	<g>
		<defs>
			<ellipse id="SVGID_3_" cx="655.64" cy="681.33" rx="114.64" ry="158.64"/>
		</defs>
		<clipPath id="SVGID_4_">
			<use xlink:href="#SVGID_3_"  style="overflow:visible;"/>
		</clipPath>
		<ellipse class="st7" cx="564.54" cy="683.19" rx="205.74" ry="303.03"/>
		<ellipse class="st8" cx="423.87" cy="694.35" rx="279.48" ry="377.39"/>
	</g>
	<path class="st6" d="M679.17,849.66c5.21,8.67,16.74,11,24.88,5.01c27.62-20.3,74.04-63.83,88.75-134.73
		c9.88-47.61,2.8-97.21-20.46-143.42c-10.28-20.43-21.74-36.4-30.36-47c-6.46-7.95-18.36-8.57-25.57-1.3l-2.89,2.92
		c-6.18,6.24-6.64,16.11-1.13,22.94c19.43,24.08,58.27,83.41,42.78,158.07c-12.13,58.47-50.61,94.52-73.54,111.36
		c-7.16,5.26-9.14,15.09-4.56,22.7L679.17,849.66z"/>
</g>
<circle class="st2" cx="674.59" cy="420.17" r="26.28"/>
<circle class="st0" cx="868.18" cy="302.35" r="36.1"/>
<circle class="st1" cx="874.69" cy="835.59" r="20.77"/>
</svg>
