<?xml version="1.0" encoding="utf-8"?>
<!-- Generator: Adobe Illustrator 25.2.3, SVG Export Plug-In . SVG Version: 6.00 Build 0)  -->
<svg version="1.1" id="Layer_1" xmlns="http://www.w3.org/2000/svg" xmlns:xlink="http://www.w3.org/1999/xlink" x="0px" y="0px"
	 viewBox="0 0 1000 1000" style="enable-background:new 0 0 1000 1000;" xml:space="preserve">
<style type="text/css">
	.st0{fill:#56587E;}
	.st1{fill:#CACBDA;}
	.st2{opacity:0.8;fill:#8F4279;}
	.st3{opacity:0.5;fill:#FCD069;enable-background:new    ;}
	.st4{opacity:0.5;fill:#83296B;enable-background:new    ;}
	.st5{opacity:0.5;fill:#434470;enable-background:new    ;}
	.st6{fill:#FCD47F;}
</style>
<g>
	<path class="st0" d="M705.53,411.97c-8.8,42.85-31.79,111.26-100.32,190.16c-4.86,5.6-7.02,12.38-5.88,19.09
		c2.19,12.84,3.72,26.51,4.3,40.92c2.47,61.81-13.61,112.97-29.42,148.28c-4.96,11.08-18.3,18.5-33.28,18.5h-89.22
		c-14.98,0-28.31-7.41-33.28-18.49c-15.81-35.31-31.9-86.47-29.41-148.29c0.59-14.7,2.17-28.61,4.42-41.67
		c1.15-6.67-0.99-13.41-5.81-18.97c-67.94-78.54-90.8-146.6-99.57-189.3c-14.01-68.16,2.46-97.7,14.68-113.88
		c6.56-8.67,50.69-64.79,144.75-79.06c15.43-2.33,29.7-3.17,41.97-3.25c14.88-0.6,34.53-0.34,56.62,3
		c94.06,14.28,138.2,70.4,144.75,79.06C703.07,314.26,719.54,343.81,705.53,411.97z"/>
	<path class="st1" d="M622.37,451.41c-5.37,37.47-19.47,97.5-61.8,166.67c-2.28,3.73-3.19,7.88-2.67,11.99
		c1.49,11.86,2.53,24.57,2.91,38.02c1.47,52.67-7.91,96.41-17.31,126.93c-3.16,10.27-14.86,17.52-28.34,17.52h-38.35
		c-13.48,0-25.18-7.24-28.34-17.51c-9.4-30.53-18.78-74.27-17.3-126.94c0.39-13.67,1.46-26.56,2.98-38.58
		c0.52-4.12-0.37-8.28-2.65-12.01c-41.95-68.84-55.97-128.55-61.32-165.88c-8.47-59.03,1.48-84.62,8.87-98.64
		c3.96-7.51,30.62-56.11,87.44-68.47c9.32-2.02,17.94-2.75,25.36-2.82c8.99-0.52,20.86-0.3,34.21,2.6
		c56.82,12.37,83.48,60.98,87.44,68.47C620.88,366.79,630.83,392.37,622.37,451.41z"/>
	<path class="st2" d="M571.82,472.23c-3.26,29.33-11.87,76.49-37.9,130.78c-0.89,1.86-1.25,3.85-1.05,5.83
		c1,9.74,1.7,20.23,1.94,31.38c0.92,42.42-5.21,77.37-11.06,101.12c-1.56,6.32-8.61,10.87-16.82,10.87h-22.17
		c-8.21,0-15.26-4.55-16.82-10.87c-5.86-23.75-11.98-58.7-11.06-101.12c0.25-11.33,0.97-21.97,1.99-31.84
		c0.2-1.98-0.15-3.97-1.04-5.83c-25.8-54.03-34.36-100.95-37.61-130.17c-5.09-45.77,0.89-65.61,5.33-76.47
		c2.38-5.82,18.41-43.51,52.57-53.09c5.61-1.57,10.79-2.13,15.24-2.18c5.41-0.4,12.54-0.23,20.56,2.02
		c34.16,9.59,50.19,47.27,52.57,53.09C570.93,406.62,576.91,426.46,571.82,472.23z"/>
</g>
<circle class="st3" cx="716.41" cy="165.94" r="47.05"/>
<circle class="st4" cx="863.06" cy="714.86" r="114.94"/>
<circle class="st5" cx="127.66" cy="700.88" r="69.65"/>
<circle class="st3" cx="218.44" cy="787.47" r="42.1"/>
<path class="st1" d="M601.91,386.97c30.43-17.14,91.66-45.09,166.67-35.17c36.39,4.81,103.58,13.7,123.85,64.22
	c20.39,50.81-21.76,106.21-25.99,111.62c-15.29-8.66-30.58-17.33-45.87-25.99c2.82-3.92,23.66-33.68,12.23-59.63
	c-2.49-5.64-10.7-20.66-47.4-30.58c-66.79-18.06-137.32,5.23-175.84,21.41C607.01,417.55,604.46,402.26,601.91,386.97z"/>
<path class="st1" d="M400.54,382c-30.43-17.14-91.66-45.09-166.67-35.17c-36.39,4.81-103.58,13.7-123.85,64.22
	c-20.39,50.81,21.76,106.21,25.99,111.62c15.29-8.66,30.58-17.33,45.87-25.99c-2.82-3.92-23.66-33.68-12.23-59.63
	c2.49-5.64,10.7-20.66,47.4-30.58c66.79-18.06,137.32,5.23,175.84,21.41C395.45,412.58,397.99,397.29,400.54,382z"/>
<ellipse class="st6" cx="175.31" cy="486.35" rx="70.34" ry="47.4"/>
<ellipse class="st6" cx="819.04" cy="510.82" rx="70.34" ry="47.4"/>
<circle class="st4" cx="268.07" cy="246.75" r="33.51"/>
</svg>
